<?xml version="1.0" encoding="UTF-8" standalone="no"?>
<svg
   xmlns:dc="http://purl.org/dc/elements/1.1/"
   xmlns:cc="http://creativecommons.org/ns#"
   xmlns:rdf="http://www.w3.org/1999/02/22-rdf-syntax-ns#"
   xmlns:svg="http://www.w3.org/2000/svg"
   xmlns="http://www.w3.org/2000/svg"
   xmlns:sodipodi="http://sodipodi.sourceforge.net/DTD/sodipodi-0.dtd"
   xmlns:inkscape="http://www.inkscape.org/namespaces/inkscape"
   inkscape:version="1.0beta1 (32d4812, 2019-09-19)"
   sodipodi:docname="wolfsburg-accent-black.svg"
   id="svg1189"
   version="1.1"
   viewBox="0 0 97 28"
   height="28px"
   width="97px">
  <metadata
     id="metadata1195">
    <rdf:RDF>
      <cc:Work
         rdf:about="">
        <dc:format>image/svg+xml</dc:format>
        <dc:type
           rdf:resource="http://purl.org/dc/dcmitype/StillImage" />
        <dc:title>logo/wolfsburg_stadtwerke_accent</dc:title>
      </cc:Work>
    </rdf:RDF>
  </metadata>
  <defs
     id="defs1193" />
  <sodipodi:namedview
     inkscape:current-layer="svg1189"
     inkscape:window-maximized="1"
     inkscape:window-y="23"
     inkscape:window-x="0"
     inkscape:cy="17.739229"
     inkscape:cx="43.55102"
     inkscape:zoom="4.5463918"
     showgrid="false"
     id="namedview1191"
     inkscape:window-height="970"
     inkscape:window-width="1920"
     inkscape:pageshadow="2"
     inkscape:pageopacity="0"
     guidetolerance="10"
     gridtolerance="10"
     objecttolerance="10"
     borderopacity="1"
     inkscape:document-rotation="0"
     bordercolor="#666666"
     pagecolor="#ffffff" />
  <!-- Generator: Sketch 53.2 (72643) - https://sketchapp.com -->
  <title
     id="title1163">logo/wolfsburg_stadtwerke_accent</title>
  <desc
     id="desc1165">Created with Sketch.</desc>
  <g
     id="Group-40"
     fill="#00B8C7"
     style="opacity:1;fill-rule:evenodd;stroke:none;stroke-width:1;stop-opacity:1;fill:#000000">
    <path
       style="fill:#000000"
       d="M 69.017565,27.850748 H 96.624591 V 0.24347826 H 69.017565 Z m 0.690261,-0.690261 H 95.93433 V 0.93373913 H 69.707826 Z"
       id="Fill-1"
       inkscape:connector-curvature="0" />
    <g
       style="fill:#000000"
       id="Group-39"
       transform="translate(0,0.094226)">
      <path
         style="fill:#000000"
         d="m 61.080466,6.93224 c 0,0.076452 -0.03287,0.098609 -0.109565,0.098609 h -2.640278 c -0.08765,0 -0.120522,0.043826 -0.120522,0.1205217 V 8.279649 c 0,0.076939 0.03287,0.1095652 0.120522,0.1095652 h 2.169147 c 0.06598,0 0.109566,0.033113 0.109566,0.1098087 v 1.1501913 c 0,0.076939 -0.04358,0.1095652 -0.109566,0.1095652 h -2.169147 c -0.08765,0 -0.120522,0.03287 -0.120522,0.1098087 v 1.2268869 c 0,0.07669 0.03287,0.109565 0.120522,0.109565 h 2.640278 c 0.06574,0 0.109565,0.03311 0.109565,0.109565 v 1.150435 c 0,0.0767 -0.03287,0.109565 -0.109565,0.109565 h -4.185148 c -0.06574,0 -0.109565,-0.03287 -0.109565,-0.109565 V 5.7818052 c 0,-0.076696 0.04383,-0.1095652 0.109565,-0.1095652 h 4.185148 c 0.06574,0 0.109565,0.03287 0.109565,0.1095652 z m -1.831687,14.787652 h 0.271722 c 0.464556,0 0.858748,-0.385669 0.858748,-0.858748 v -0.639861 c 0,-0.06136 -0.02605,-0.08765 -0.08741,-0.08765 h -0.894052 c -0.06136,0 -0.08765,-0.0263 -0.08765,-0.08765 v -0.429252 c 0,-0.06136 0.02629,-0.0879 0.08765,-0.0879 h 1.586261 c 0.06136,0 0.08765,0.02654 0.08765,0.0879 v 1.244417 c 0,0.858748 -0.604557,1.463548 -1.5512,1.463548 h -0.271722 c -0.9464,0 -1.5512,-0.596035 -1.5512,-1.463548 v -2.769565 c 0,-0.858748 0.6048,-1.463791 1.5512,-1.463791 h 0.429496 c 0.482087,0 0.815165,0.140243 1.051582,0.342087 0.122713,0.104939 0.350609,0.350365 0.350609,0.473078 0,0.03506 -0.01753,0.06136 -0.05259,0.07889 l -0.464557,0.227896 c -0.01729,0.0088 -0.0263,0.01753 -0.04383,0.01753 -0.02605,0 -0.04358,-0.01753 -0.06136,-0.05259 -0.18407,-0.315548 -0.490609,-0.481844 -0.779861,-0.481844 h -0.429496 c -0.473322,0 -0.858991,0.376905 -0.858991,0.858748 v 2.769565 c 0,0.464313 0.376904,0.858748 0.858991,0.858748 z m -2.566017,0.516904 h -0.578261 c -0.03506,0 -0.07012,-0.02605 -0.07889,-0.06136 l -0.823687,-2.383652 c -0.009,-0.03506 -0.0353,-0.05235 -0.07036,-0.05235 h -0.990226 c -0.06136,0 -0.08765,0.02605 -0.08765,0.08741 v 2.322539 c 0,0.06136 -0.02629,0.08741 -0.08765,0.08741 h -0.508382 c -0.06136,0 -0.08765,-0.02605 -0.08765,-0.08741 v -5.346052 c 0,-0.06136 0.0263,-0.08765 0.08765,-0.08765 h 1.726504 c 0.946644,0 1.5512,0.604557 1.5512,1.5512 v 0.08765 c 0,0.455547 -0.411722,1.007756 -0.797391,1.174295 -0.03506,0.01777 -0.05259,0.03506 -0.05259,0.06136 0,0.01753 0,0.02654 0.0088,0.03506 l 0.867756,2.497843 c 0.0088,0.01753 0.0088,0.03506 0.0088,0.05235 0,0.0353 -0.02654,0.06136 -0.0879,0.06136 z M 52.519527,9.9012139 c -0.03311,0 -0.06598,0.021913 -0.08765,0.054783 l -0.295826,0.3944341 v 2.114609 c 0,0.0767 -0.04407,0.109565 -0.109809,0.109565 h -1.314539 c -0.06598,0 -0.109565,-0.03287 -0.109565,-0.109565 V 5.7818052 c 0,-0.076696 0.04358,-0.1095652 0.109565,-0.1095652 h 1.314539 c 0.05478,0 0.109809,0.03287 0.109809,0.1095652 v 2.0707826 c 0,0.076696 0.04358,0.1312348 0.109565,0.1312348 0.03287,0 0.07645,-0.021913 0.109322,-0.065496 l 1.764,-2.1913044 c 0.02191,-0.03287 0.08765,-0.054783 0.131478,-0.054783 h 1.577739 c 0.0767,0 0.120522,0.043826 0.120522,0.087652 0,0.032869 -0.01096,0.054783 -0.03287,0.087652 l -2.267756,2.6621914 c -0.0112,0.021913 -0.02216,0.043826 -0.02216,0.054783 0,0.021913 0.01096,0.04407 0.02216,0.065983 l 2.464974,3.7797564 c 0.01096,0.02191 0.02191,0.05478 0.02191,0.07645 0,0.05503 -0.04383,0.08789 -0.120766,0.08789 H 54.44763 c -0.05478,0 -0.09837,-0.02191 -0.131478,-0.06598 L 52.617891,9.9669467 c -0.03287,-0.043826 -0.0655,-0.065739 -0.09837,-0.065739 z M 52.190588,20.861144 c 0,0.858748 -0.604557,1.463548 -1.5512,1.463548 h -0.271722 c -0.946643,0 -1.5512,-0.596035 -1.5512,-1.463548 v -4.057808 c 0,-0.06136 0.0263,-0.08765 0.08765,-0.08765 h 0.516905 c 0.06136,0 0.0879,0.0263 0.0879,0.08765 v 4.057808 c 0,0.464313 0.376661,0.858748 0.858748,0.858748 h 0.271722 c 0.464313,0 0.858991,-0.385669 0.858991,-0.858748 v -4.057808 c 0,-0.06136 0.0263,-0.08765 0.08765,-0.08765 h 0.516905 c 0.06136,0 0.08765,0.0263 0.08765,0.08765 z M 48.21337,12.497666 47.238483,9.8247617 c -0.02191,-0.044069 -0.05478,-0.065983 -0.09861,-0.065983 H 46.27431 c -0.08765,0 -0.120522,0.03287 -0.120522,0.1098087 V 12.46504 c 0,0.0767 -0.04383,0.109565 -0.109565,0.109565 h -1.31454 c -0.06598,0 -0.109565,-0.03287 -0.109565,-0.109565 V 5.7818052 c 0,-0.076696 0.04358,-0.1095652 0.109565,-0.1095652 h 2.738887 c 1.336696,0 2.191305,0.7998261 2.191305,2.0926956 v 0.1095653 c 0,0.6135652 -0.394435,1.2049739 -0.843652,1.5008 -0.04407,0.03287 -0.06598,0.065739 -0.06598,0.1095652 0,0.021913 0,0.03287 0.01096,0.055026 l 1.05207,2.8922779 c 0.01071,0.02191 0.01071,0.04358 0.01071,0.0655 0,0.05503 -0.03263,0.07694 -0.09861,0.07694 h -1.413147 c -0.04383,0 -0.08765,-0.03287 -0.09885,-0.07694 z m -0.438504,5.85687 c 0,0.3416 -0.271722,0.815165 -0.596035,1.007756 -0.07889,0.04383 -0.07889,0.105183 -0.0088,0.149009 0.298017,0.184069 0.6048,0.62233 0.6048,1.051583 v 0.131478 c 0,0.946643 -0.6048,1.542434 -1.5512,1.542434 h -1.726504 c -0.06136,0 -0.0879,-0.02605 -0.0879,-0.08741 v -5.346052 c 0,-0.06136 0.02654,-0.08765 0.0879,-0.08765 h 1.726504 c 0.9464,0 1.5512,0.604557 1.5512,1.5512 z M 43.737753,6.93224 c 0,0.076452 -0.03287,0.098609 -0.109809,0.098609 H 40.98791 c -0.0879,0 -0.120766,0.043826 -0.120766,0.1205217 V 8.279649 c 0,0.076939 0.03287,0.1095652 0.120766,0.1095652 h 2.169147 c 0.06574,0 0.109566,0.033113 0.109566,0.1098087 v 1.1501913 c 0,0.076939 -0.04383,0.1095652 -0.109566,0.1095652 H 40.98791 c -0.0879,0 -0.120766,0.03287 -0.120766,0.1098087 v 1.2268869 c 0,0.07669 0.03287,0.109565 0.120766,0.109565 h 2.640034 c 0.06598,0 0.109809,0.03311 0.109809,0.109565 v 1.150435 c 0,0.0767 -0.03287,0.109565 -0.109809,0.109565 h -4.185148 c -0.06574,0 -0.109565,-0.03287 -0.109565,-0.109565 V 5.7818052 c 0,-0.076696 0.04383,-0.1095652 0.109565,-0.1095652 h 4.185148 c 0.06598,0 0.109809,0.03287 0.109809,0.1095652 z m -1.925426,15.392452 h -0.376904 c -0.455792,0 -0.771096,-0.113948 -0.999235,-0.298017 -0.140244,-0.105183 -0.402957,-0.376905 -0.402957,-0.534435 0,-0.02654 0.01729,-0.05283 0.05259,-0.07036 l 0.455791,-0.236418 c 0.01729,-0.009 0.0263,-0.009 0.04383,-0.009 0.03482,0 0.06136,0.01753 0.07889,0.05283 0.175304,0.324313 0.473322,0.490609 0.771096,0.490609 h 0.376904 c 0.473565,0 0.867757,-0.376661 0.867757,-0.858748 0,-1.305774 -2.559201,-0.894052 -2.559201,-2.769565 0,-0.841217 0.622331,-1.463791 1.5512,-1.463791 h 0.140244 c 0.517148,0 0.867757,0.158017 1.104174,0.385669 0.105426,0.09666 0.298261,0.324313 0.298261,0.429496 0,0.03506 -0.01753,0.06136 -0.05284,0.07889 l -0.464313,0.227896 c -0.01753,0.0088 -0.0263,0.01753 -0.04383,0.01753 -0.0263,0 -0.04383,-0.01753 -0.06136,-0.05259 -0.183826,-0.315548 -0.482087,-0.481844 -0.780104,-0.481844 h -0.140244 c -0.525669,0 -0.858747,0.350365 -0.858747,0.858748 0,1.148 2.550191,0.797391 2.550191,2.769565 0,0.858748 -0.595791,1.463548 -1.5512,1.463548 z m -2.378052,-5.091861 c 0,0.06136 -0.0263,0.08741 -0.08765,0.08741 H 37.10297 c -0.06136,0 -0.08765,0.0263 -0.08765,0.08765 v 1.639096 c 0,0.06136 0.0263,0.08741 0.08765,0.08741 h 1.840453 c 0.06111,0 0.08765,0.02654 0.08765,0.0879 v 0.429252 c 0,0.06136 -0.02654,0.0879 -0.08765,0.0879 H 37.10297 c -0.06136,0 -0.08765,0.02605 -0.08765,0.08741 v 2.322539 c 0,0.06136 -0.02629,0.08741 -0.08765,0.08741 h -0.508383 c -0.06136,0 -0.08765,-0.02605 -0.08765,-0.08741 v -5.346052 c 0,-0.06136 0.0263,-0.08765 0.08765,-0.08765 h 2.92734 c 0.06136,0 0.08765,0.0263 0.08765,0.08765 z M 35.923318,12.497666 35.036083,9.2219096 C 35.025127,9.178327 34.904605,8.5973878 34.904605,8.5973878 h -0.04383 c 0,0 -0.109565,0.5809392 -0.120522,0.6245218 l -0.876765,3.2757564 c -0.01096,0.05503 -0.04358,0.07694 -0.109322,0.07694 h -1.008 c -0.05478,0 -0.09861,-0.03287 -0.109565,-0.08789 L 31.113649,5.7818052 c 0,-0.010956 -0.01096,-0.021913 -0.01096,-0.03287 0,-0.054783 0.05478,-0.076696 0.120522,-0.076696 h 1.402435 c 0.05478,0 0.09861,0.03287 0.109321,0.087652 l 0.602853,3.2650435 0.109321,0.7448 h 0.04407 l 0.109565,-0.7448 0.799583,-3.2650435 c 0.01096,-0.054783 0.04407,-0.087652 0.08789,-0.087652 h 0.821739 c 0.04358,0 0.07645,0.03287 0.08741,0.087652 l 0.777913,3.2540869 0.109809,0.7009739 h 0.04358 c 0,0 0.08789,-0.6573913 0.09885,-0.7119304 l 0.613321,-3.2431304 c 0.01096,-0.054783 0.04383,-0.087652 0.09861,-0.087652 h 1.413391 c 0.08765,0 0.109566,0.03287 0.109566,0.1095652 L 37.139492,12.48671 c -0.01071,0.05503 -0.05478,0.08789 -0.109565,0.08789 h -1.008 c -0.05478,0 -0.08765,-0.02191 -0.09861,-0.07694 z m -0.4648,9.651722 c 0,0.06136 -0.02629,0.08741 -0.08765,0.08741 h -2.927339 c -0.06136,0 -0.08765,-0.02605 -0.08765,-0.08741 v -5.346052 c 0,-0.06136 0.0263,-0.08765 0.08765,-0.08765 h 0.508383 c 0.06136,0 0.08741,0.0263 0.08741,0.08765 v 4.741252 c 0,0.06136 0.02654,0.08765 0.0879,0.08765 h 2.243652 c 0.06136,0 0.08765,0.0263 0.08765,0.08765 z m -4.2224,-1.288244 c 0,0.858748 -0.604556,1.463548 -1.5512,1.463548 h -0.271721 c -0.946401,0 -1.551201,-0.596035 -1.551201,-1.463548 v -2.769565 c 0,-0.858748 0.6048,-1.463791 1.551201,-1.463791 h 0.271721 c 0.946644,0 1.5512,0.596278 1.5512,1.463791 z m -3.4552,-8.396104 V 7.1513704 c 0,-0.076696 -0.02191,-0.1205217 -0.120522,-0.1205217 h -1.205217 c -0.06574,0 -0.109565,-0.022157 -0.109565,-0.098609 V 5.7818052 c 0,-0.076696 0.04383,-0.1095652 0.109565,-0.1095652 h 4.174191 c 0.05478,0 0.09861,0.03287 0.09861,0.1095652 V 6.93224 c 0,0.076452 -0.03263,0.098609 -0.09861,0.098609 h -1.204974 c -0.09861,0 -0.131478,0.043826 -0.131478,0.1205217 V 12.46504 c 0,0.0767 -0.03311,0.109565 -0.09861,0.109565 h -1.303827 c -0.06574,0 -0.109565,-0.03287 -0.109565,-0.109565 z m -1.824139,9.701878 c -0.0088,0.04383 -0.04383,0.06988 -0.08765,0.06988 h -0.394435 c -0.04358,0 -0.07889,-0.01729 -0.08741,-0.06136 l -0.972939,-3.321287 c -0.05259,-0.18407 -0.08765,-0.385669 -0.09642,-0.473322 h -0.01753 c -0.0088,0.08765 -0.05259,0.289252 -0.105183,0.473322 L 23.21351,22.17544 c -0.0085,0.04407 -0.04383,0.06136 -0.08741,0.06136 h -0.394435 c -0.04383,0 -0.07913,-0.02605 -0.08765,-0.06988 l -1.157009,-5.346052 c 0,-0.009 -0.0088,-0.01753 -0.0088,-0.03506 0,-0.04383 0.0353,-0.07012 0.09666,-0.07012 h 0.569739 c 0.04358,0 0.07864,0.0263 0.08741,0.07012 l 0.683687,3.575478 c 0.04383,0.236905 0.07889,0.438505 0.08765,0.56974 h 0.01753 c 0.0085,-0.131235 0.05259,-0.32407 0.122713,-0.560731 l 0.990226,-3.610782 c 0.009,-0.04383 0.04383,-0.06136 0.08765,-0.06136 h 0.2016 c 0.04358,0 0.07889,0.01753 0.08765,0.06136 l 0.990469,3.549426 c 0.05235,0.2016 0.09617,0.4032 0.122713,0.596034 h 0.01753 c 0.02605,-0.219374 0.06136,-0.4648 0.08741,-0.605043 l 0.648627,-3.514122 c 0.0088,-0.04383 0.04383,-0.07012 0.08765,-0.07012 h 0.569495 c 0.07913,0 0.0879,0.04383 0.0879,0.105183 z M 20.714205,12.46504 V 5.7818052 c 0,-0.076696 0.04358,-0.1095652 0.109565,-0.1095652 h 2.738887 c 1.336696,0 2.191305,0.7998261 2.191305,2.0926956 V 10.48191 c 0,1.281913 -0.854609,2.092695 -2.191305,2.092695 H 20.82377 c -0.06598,0 -0.109565,-0.03287 -0.109565,-0.109565 z m -0.789113,0.109565 h -1.391478 c -0.06574,0 -0.08765,-0.02191 -0.109565,-0.07694 l -0.306783,-0.9968 c -0.02191,-0.05478 -0.04383,-0.06574 -0.120522,-0.06574 h -1.446261 c -0.0767,0 -0.09837,0.01096 -0.120278,0.06574 l -0.317982,0.9968 c -0.02191,0.05503 -0.04383,0.07694 -0.09837,0.07694 h -1.380521 c -0.07694,0 -0.120522,-0.03287 -0.120522,-0.08789 0,-0.02167 0,-0.03263 0.01096,-0.05454 l 2.158192,-6.6832344 c 0.02216,-0.054783 0.04407,-0.076696 0.109565,-0.076696 h 0.97513 c 0.05503,0 0.08765,0.021913 0.109566,0.076696 l 2.158191,6.6832344 c 0.01096,0.02191 0.01096,0.04358 0.01096,0.05454 0,0.05503 -0.04358,0.08789 -0.120278,0.08789 z M 13.455875,7.1513704 V 12.46504 c 0,0.0767 -0.03311,0.109565 -0.09861,0.109565 H 12.05344 c -0.06598,0 -0.109565,-0.03287 -0.109565,-0.109565 V 7.1513704 c 0,-0.076696 -0.02191,-0.1205217 -0.120765,-0.1205217 h -1.205218 c -0.0655,0 -0.109322,-0.022157 -0.109322,-0.098609 V 5.7818052 c 0,-0.076696 0.04383,-0.1095652 0.109322,-0.1095652 h 4.174435 c 0.05478,0 0.09861,0.03287 0.09861,0.1095652 V 6.93224 c 0,0.076452 -0.03263,0.098609 -0.09861,0.098609 h -1.204974 c -0.09861,0 -0.131478,0.043826 -0.131478,0.1205214 z M 7.8239791,12.695127 H 7.4733704 c -0.777913,0 -1.3257391,-0.28487 -1.6980174,-0.701217 -0.1533913,-0.164348 -0.3946782,-0.471131 -0.3946782,-0.624522 0,-0.06574 0.021913,-0.120522 0.065739,-0.142191 L 6.5311096,10.67937 c 0.021913,-0.01096 0.03287,-0.01096 0.055026,-0.01096 0.043583,0 0.087409,0.03263 0.1093218,0.09836 0.1533913,0.383478 0.4053913,0.558783 0.777913,0.558783 h 0.2739131 c 0.3944348,0 0.7450435,-0.197218 0.7450435,-0.646192 0,-0.547826 -0.5697392,-0.6905039 -1.2271305,-0.953217 -1.008,-0.4053913 -1.8187826,-0.8767652 -1.8187826,-2.1365217 0,-1.238087 0.8436522,-2.0488696 2.2132174,-2.0488696 h 0.1643478 c 0.7998261,0 1.3476522,0.3067826 1.7311305,0.734087 0.1424347,0.1643478 0.3613217,0.4492174 0.3613217,0.6026087 0,0.054783 -0.02167,0.1095652 -0.065496,0.1312348 L 8.76624,7.5565183 c -0.021913,0.010957 -0.03287,0.010957 -0.054783,0.010957 -0.04407,0 -0.087652,-0.02167 -0.1095652,-0.098609 C 8.4485009,7.0856313 8.1965009,6.910327 7.8239791,6.910327 H 7.6596313 c -0.3834783,0 -0.6793043,0.2629565 -0.6793043,0.6571478 0,0.4932869 0.6464347,0.6576348 1.2490434,0.8877217 1.0408696,0.4051479 1.7968696,0.9201044 1.7968696,2.2020175 0,1.238087 -0.8110261,2.037913 -2.2022609,2.037913 z M 4.8695652e-5,27.756449 H 66.601823 V 0.14917913 H 4.8695652e-5 Z"
         id="Fill-2"
         inkscape:connector-curvature="0" />
      <path
         style="fill:#000000"
         d="m 17.306556,8.0276487 h -0.04383 c -0.03287,0.2848696 -0.120521,0.7669565 -0.21913,1.1723478 l -0.230087,0.8874785 c 0,0.01096 -0.01096,0.02216 -0.01096,0.03311 0,0.05454 0.05478,0.09837 0.142434,0.09837 h 0.668348 c 0.09861,0 0.120522,-0.05478 0.120522,-0.131478 L 17.503774,9.1999965 C 17.393965,8.7946052 17.32847,8.3125183 17.306556,8.0276487"
         id="Fill-5"
         inkscape:connector-curvature="0" />
      <path
         style="fill:#000000"
         d="M 47.468497,7.0308 H 46.27448 c -0.0879,0 -0.120522,0.043826 -0.120522,0.1205217 v 1.1723479 c 0,0.076696 0.03263,0.1205217 0.120522,0.1205217 h 1.194017 c 0.383479,0 0.679305,-0.2629565 0.679305,-0.6245217 V 7.6662783 C 48.147802,7.304713 47.862932,7.0308 47.468497,7.0308"
         id="Fill-7"
         inkscape:connector-curvature="0" />
      <path
         style="fill:#000000"
         d="m 46.223544,17.32024 h -1.042817 c -0.06136,0 -0.0879,0.0263 -0.0879,0.08765 v 1.639096 c 0,0.06136 0.02654,0.08741 0.0879,0.08741 h 1.042817 c 0.473322,0 0.867513,-0.385669 0.867513,-0.867513 v -0.08789 c 0,-0.464313 -0.385669,-0.858748 -0.867513,-0.858748"
         id="Fill-9"
         inkscape:connector-curvature="0" />
      <path
         style="fill:#000000"
         d="M 24.241889,10.580616 V 7.6661809 c 0,-0.3284522 -0.306783,-0.6354783 -0.679305,-0.6354783 h -1.194017 c -0.0879,0 -0.120522,0.043826 -0.120522,0.1205217 v 3.9441047 c 0,0.07694 0.03263,0.109565 0.120522,0.109565 h 1.194017 c 0.372522,0 0.679305,-0.273913 0.679305,-0.624278"
         id="Fill-11"
         inkscape:connector-curvature="0" />
      <path
         style="fill:#000000"
         d="m 29.684967,17.232734 h -0.271722 c -0.473322,0 -0.858991,0.376904 -0.858991,0.858748 v 2.769565 c 0,0.464556 0.376904,0.858991 0.858991,0.858991 h 0.271722 c 0.464556,0 0.858748,-0.385669 0.858748,-0.858991 v -2.769565 c 0,-0.473079 -0.38567,-0.858748 -0.858748,-0.858748"
         id="Fill-13"
         inkscape:connector-curvature="0" />
      <path
         style="fill:#000000"
         d="m 46.223544,19.739343 h -1.042817 c -0.06136,0 -0.0879,0.02605 -0.0879,0.08741 v 1.717739 c 0,0.06136 0.02654,0.08765 0.0879,0.08765 h 1.042817 c 0.473322,0 0.867513,-0.376661 0.867513,-0.858748 v -0.18407 c 0,-0.464313 -0.385669,-0.849982 -0.867513,-0.849982"
         id="Fill-15"
         inkscape:connector-curvature="0" />
      <path
         style="fill:#000000"
         d="m 56.051836,18.179085 c 0,-0.464313 -0.385669,-0.858748 -0.867513,-0.858748 h -1.04306 c -0.06136,0 -0.08765,0.0263 -0.08765,0.08765 v 1.638852 c 0,0.06136 0.0263,0.08765 0.08765,0.08765 h 1.04306 c 0.473322,0 0.867513,-0.38567 0.867513,-0.867757 z"
         id="Fill-17"
         inkscape:connector-curvature="0" />
      <path
         style="fill:#000000"
         d="m 75.524157,8.4266365 2.551652,3.5138785 1.419721,1.953426 c 1.079096,-0.783757 1.319166,-2.294296 0.534679,-3.372905 L 76.445722,5.5879235 Z"
         id="Fill-19"
         inkscape:connector-curvature="0" />
      <path
         style="fill:#000000"
         d="m 79.904136,11.31721 c -0.0521,0.0375 -0.107131,0.06428 -0.165322,0.08303 l -5.792591,1.8816 -0.922539,2.839686 c 0,0 5.831547,-1.894504 5.850295,-1.901321 0.216696,-0.07572 0.426087,-0.18407 0.621357,-0.326261 0.86873,-0.630609 1.19353,-1.731861 0.878226,-2.699931 -0.07572,-0.2352 -0.189913,-0.462365 -0.343305,-0.672974 0.1848,0.254679 0.128313,0.610887 -0.126121,0.796174"
         id="Fill-21"
         inkscape:connector-curvature="0" />
      <path
         style="fill:#000000"
         d="m 75.759064,18.860532 4.129879,-1.342539 2.29673,-0.745287 C 81.773951,15.503941 80.411447,14.809541 79.142438,15.22175 l -5.798678,1.884278 z"
         id="Fill-23"
         inkscape:connector-curvature="0" />
      <path
         style="fill:#000000"
         d="m 79.861332,15.588087 c 0.01948,0.06063 0.028,0.121983 0.02751,0.181878 l 4.87e-4,6.09207 2.414331,1.754748 c 0,0 4.87e-4,-6.132974 0,-6.152453 -0.0046,-0.2296 -0.04334,-0.462365 -0.117844,-0.691721 -0.331374,-1.021148 -1.278748,-1.669774 -2.297461,-1.669287 -0.246887,0 -0.497669,0.03847 -0.745774,0.11833 0.299479,-0.09666 0.621113,0.06744 0.718748,0.366435"
         id="Fill-25"
         inkscape:connector-curvature="0" />
      <path
         style="fill:#000000"
         d="m 85.754285,21.862156 4.87e-4,-4.343652 -4.87e-4,-2.413843 c -1.334017,-0.0012 -2.415304,1.080556 -2.415304,2.414087 v 6.098156 z"
         id="Fill-27"
         inkscape:connector-curvature="0" />
      <path
         style="fill:#000000"
         d="m 83.909158,16.948376 c 0.06379,7.3e-4 0.125148,0.01096 0.182122,0.03043 l 5.791617,1.882087 2.415305,-1.755234 c 0,0 -5.830574,-1.894505 -5.849565,-1.900105 -0.219861,-0.06623 -0.45287,-0.101774 -0.6944,-0.1008 -1.073253,-0.0015 -1.982887,0.69927 -2.297218,1.667826 -0.07621,0.234713 -0.1176,0.485739 -0.118087,0.746018 4.87e-4,-0.315305 0.255409,-0.569739 0.570226,-0.570226"
         id="Fill-29"
         inkscape:connector-curvature="0" />
      <path
         style="fill:#000000"
         d="M 91.695228,13.281934 87.566567,11.940612 85.27008,11.194595 c -0.412696,1.268522 0.282191,2.630782 1.55047,3.043235 l 5.79746,1.883791 z"
         id="Fill-31"
         inkscape:connector-curvature="0" />
      <path
         style="fill:#000000"
         d="m 86.454285,13.519228 c 0.02045,-0.06063 0.04894,-0.115652 0.08522,-0.164105 L 90.11985,8.42688 89.197311,5.587193 c 0,0 -3.604695,4.961844 -3.616139,4.9784 -0.130748,0.188696 -0.236417,0.399061 -0.310922,0.628904 -0.332591,1.020905 0.05284,2.102192 0.877253,2.700661 0.199408,0.145357 0.425113,0.261739 0.672487,0.342331 -0.299235,-0.09739 -0.462609,-0.418783 -0.365705,-0.718261"
         id="Fill-33"
         inkscape:connector-curvature="0" />
      <path
         style="fill:#000000"
         d="m 85.3748,4.9789357 -2.553113,3.5148521 -1.419965,1.9529392 c 1.079339,0.784243 2.589148,0.545148 3.373391,-0.5339479 l 3.58473,-4.9340869 z"
         id="Fill-35"
         inkscape:connector-curvature="0" />
      <path
         style="fill:#000000"
         d="m 83.979061,10.03873 c -0.05186,-0.03749 -0.09471,-0.081808 -0.129774,-0.1307474 l -3.580348,-4.928 h -2.985287 c 0,0 3.603965,4.9608696 3.615896,4.9764522 0.139269,0.1826092 0.307026,0.3481742 0.502052,0.4903652 0.868974,0.631096 2.016244,0.599687 2.839444,4.87e-4 0.199895,-0.144626 0.380069,-0.323826 0.533704,-0.5341913 -0.185531,0.2539483 -0.541252,0.3104343 -0.795687,0.1256343"
         id="Fill-37"
         inkscape:connector-curvature="0" />
    </g>
  </g>
</svg>
