<?xml version="1.0" encoding="UTF-8" standalone="no"?>
<svg
   xmlns:dc="http://purl.org/dc/elements/1.1/"
   xmlns:cc="http://creativecommons.org/ns#"
   xmlns:rdf="http://www.w3.org/1999/02/22-rdf-syntax-ns#"
   xmlns:svg="http://www.w3.org/2000/svg"
   xmlns="http://www.w3.org/2000/svg"
   xmlns:sodipodi="http://sodipodi.sourceforge.net/DTD/sodipodi-0.dtd"
   xmlns:inkscape="http://www.inkscape.org/namespaces/inkscape"
   inkscape:version="1.0beta1 (32d4812, 2019-09-19)"
   sodipodi:docname="wolfsburg-logo-square-white.svg"
   id="svg844"
   version="1.1"
   viewBox="0 0 22.522612 24"
   height="24"
   width="22.522612">
  <metadata
     id="metadata850">
    <rdf:RDF>
      <cc:Work
         rdf:about="">
        <dc:format>image/svg+xml</dc:format>
        <dc:type
           rdf:resource="http://purl.org/dc/dcmitype/StillImage" />
        <dc:title>logo/telefonica-negative copy</dc:title>
      </cc:Work>
    </rdf:RDF>
  </metadata>
  <defs
     id="defs848" />
  <sodipodi:namedview
     fit-margin-bottom="0"
     fit-margin-right="0"
     fit-margin-left="0"
     fit-margin-top="0"
     inkscape:current-layer="svg844"
     inkscape:window-maximized="0"
     inkscape:window-y="23"
     inkscape:window-x="0"
     inkscape:cy="184.28571"
     inkscape:cx="184.28571"
     inkscape:zoom="1.4167331"
     showgrid="false"
     id="namedview846"
     inkscape:window-height="969"
     inkscape:window-width="1600"
     inkscape:pageshadow="2"
     inkscape:pageopacity="0"
     guidetolerance="10"
     gridtolerance="10"
     objecttolerance="10"
     borderopacity="1"
     inkscape:document-rotation="0"
     bordercolor="#666666"
     pagecolor="#ffffff" />
  <!-- Generator: Sketch 53.2 (72643) - https://sketchapp.com -->
  <title
     id="title833">logo/telefonica-negative copy</title>
  <desc
     id="desc835">Created with Sketch.</desc>
  <g
     id="Group-3"
     stroke-width="1"
     style="opacity:1;fill:#ffffff;fill-rule:evenodd;stroke:none;stop-opacity:1">
    <path
       style="fill:#ffffff"
       d="m 20.817857,17.719728 c -1.156722,0.07105 -1.939968,-0.325054 -2.279264,-0.609804 -0.637155,-0.504218 -0.734711,-0.861852 -0.806479,-0.902238 -0.235821,-0.450834 -0.557642,-0.967479 -0.958975,-1.501047 -0.666227,-0.698385 -1.088239,-1.150486 -1.088239,-1.150486 0,-0.0052 -0.540855,-0.498414 -0.970612,-0.779852 C 12.696145,11.802364 11.387534,11.703318 10.171329,11.230984 9.6091456,11.012087 6.456257,8.9299317 6.456257,8.9299317 c 0,0 -0.4445971,-0.7127326 -0.8898834,-1.1824102 0,0 -0.3618814,-0.6501907 -0.4135787,-0.9120901 -0.015002,-0.042717 0.020192,-0.3641738 0.3470412,-0.2820926 -0.028951,-0.012508 0.5880926,0.1192384 0.7353996,-0.049502 0.013989,-0.00834 0.046548,-0.031802 0.027937,-0.077503 C 6.1759561,6.1540106 5.5284216,5.2119577 5.1813805,4.8627448 5.1025572,4.5565756 4.696723,3.4008172 4.696723,3.4008172 4.4376282,2.9362902 3.7118787,2.549307 3.5652205,2.4020678 3.4184811,2.2548285 3.0062,1.4561314 2.7471051,0.96883586 2.6508062,0.78840447 2.5054049,0.51084915 2.3845345,0.28214193 2.2249418,0.01635921 2.2036141,-0.03445099 2.078243,0.01897534 2.0213556,0.04292931 1.908919,0.12648204 1.8242976,0.20790917 1.7105634,0.32583952 1.2995798,0.62550933 1.3086217,0.81248106 c 0.00673,0.0677333 0.082027,0.22278004 0.1169374,0.39675284 0.092447,0.446909 0.09046,0.5394547 0.071768,0.7843901 C 1.4637137,1.9680759 1.3893507,1.8821931 1.3577241,1.8274587 1.2549376,1.6848387 1.216864,1.6098701 1.0804642,1.4034 1.0484321,1.353857 0.93960414,1.1811922 0.80713732,1.3010847 0.67531926,1.4066293 0.62552763,1.5206355 0.59905049,1.560368 c -0.0211655,0.033356 -0.010826,0.1270459 0,0.1765889 0,0 0.2210213,1.0403624 0.2210213,1.2592591 0.1537945,0.719927 0.32242921,1.503009 0.31277901,1.6808243 0.1259793,0.058659 -0.98293863,3.5258109 -0.9958731,3.7180558 -0.3999549,0.9876309 0.14154932,3.9857599 0.7793525,5.4092219 0.1079359,0.166779 1.175496,0.582417 1.3680534,1.000671 0.1176266,0.086 1.0785482,1.653477 1.1748472,1.944726 0.096258,0.291168 0.4407046,1.727711 0.4109837,2.466482 0,0 0.3444056,2.650878 0.378019,2.860659 l -0.4122812,1.13487 c 0,0 0,0.03127 -0.2875588,0.104891 -0.2850044,0.07297 -0.4232694,0.105545 -0.5732119,0.177856 -0.1505508,0.07166 -0.2590949,0.131583 -0.2882076,0.175894 -0.028423,0.04492 -0.058185,0.105545 -0.058185,0.105545 0,0 -0.061348,0.179164 -0.062645,0.224088 H 4.69948 c 0.046751,-0.235575 0.1005564,-0.517381 0.1159237,-0.52572 0.025342,-0.01304 0.5350573,-1.155718 0.5583312,-1.170065 0.023801,-0.01435 0.038276,-0.07166 0.049629,-0.08601 -0.015002,-0.02927 -0.1544432,-1.027363 -0.1169778,-1.381808 0,0 0.093055,-1.132867 0.1428468,-1.643667 0.027896,-0.282093 0.1880161,-1.34923 0.1880161,-1.34923 0,0 0.2003424,-1.19872 0.310184,-1.492503 0.032073,-0.08601 1.2446285,-0.362253 1.2446285,-0.362253 0,0 2.9312585,-0.01251 3.7506715,0.18828 0.700489,0.210435 1.922533,1.763559 3.044993,3.359032 0.498849,0.398061 1.288541,1.186375 1.454662,1.353767 0.166688,0.167473 0.882706,1.375268 0.882706,1.529702 l 0.157687,0.435177 0.07627,0.265129 c -0.57386,0.362252 -0.864055,0.5108 -0.864055,0.5108 0,0 -0.19126,0.07166 -0.167986,0.151122 -0.01966,0.0345 -0.08592,0.08535 -0.08661,0.218243 h -1.62e-4 1.854576 0.0011 c 0.07886,-0.02796 0.155133,-0.05796 0.164783,-0.08273 0.0517,-0.133546 0.279814,-0.504873 0.28176,-0.50099 -0.221629,-0.826698 -0.79034,-1.948528 -0.79034,-1.948528 -0.15639,-0.703617 -0.172528,-1.117947 -0.248796,-1.472351 -0.486604,-0.278864 -0.665619,-0.956401 -0.854324,-1.367502 L 15.60085,17.48064 c -0.02068,-0.05212 -0.04704,-0.306865 -0.04704,-0.306865 0.07493,0.188321 0.129831,0.593535 0.377371,0.990942 0.303737,0.426062 1.410668,1.136832 1.410668,1.136832 0,0 1.186484,0.437753 2.05954,0.340057 0,0 0.792247,0.06062 1.548325,-0.442331 0.776109,-0.516645 1.348632,-1.035253 1.572897,-1.723214 -0.304386,0.120547 -1.004875,0.188321 -1.704715,0.243668"
       id="Fill-1"
       inkscape:connector-curvature="0" />
  </g>
</svg>
