<?xml version="1.0" encoding="UTF-8"?>
<svg width="147px" height="24px" viewBox="0 0 147 24" version="1.1" xmlns="http://www.w3.org/2000/svg" xmlns:xlink="http://www.w3.org/1999/xlink">
    <!-- Generator: Sketch 53.2 (72643) - https://sketchapp.com -->
    <title>logo/telefonica-negative copy</title>
    <desc>Created with Sketch.</desc>
    <g id="Symbols" stroke="none" stroke-width="1" fill="none" fill-rule="evenodd">
        <g id="layout/parts/cabecera_wolfsburg" transform="translate(-174.000000, -18.000000)" fill="#FFFFFF">
            <g id="logo/wolfsburg" transform="translate(174.000000, 18.000000)">
                <g id="Group-3" stroke-width="1">
                    <path d="M20.8178573,17.7197285 C19.6611346,17.7907728 18.8778895,17.394674 18.5385928,17.1099243 C17.9014384,16.6057056 17.8038825,16.2480721 17.7321144,16.2076856 C17.4962935,15.7568523 17.1744725,15.240207 16.773139,14.7066386 C16.1069125,14.0082538 15.6849,13.5561534 15.6849,13.5561534 C15.6849,13.5509212 15.1440446,13.0577393 14.7142877,12.7763007 C12.6961454,11.8023635 11.3875339,11.7033184 10.1713287,11.2309838 C9.60914559,11.0120871 6.456257,8.92993172 6.456257,8.92993172 C6.456257,8.92993172 6.01165993,8.2171991 5.56637357,7.74752154 C5.56637357,7.74752154 5.20449223,7.09733084 5.1527949,6.83543144 C5.13779254,6.7927149 5.17298727,6.47125761 5.49983606,6.55333877 C5.47088555,6.54083038 6.0879287,6.67257719 6.23523569,6.50383663 C6.24922438,6.49549771 6.28178357,6.47203427 6.26317253,6.42633371 C6.17595608,6.15401065 5.52842164,5.21195766 5.18138048,4.86274484 C5.10255725,4.55657557 4.69672305,3.40081724 4.69672305,3.40081724 C4.43762818,2.9362902 3.71187871,2.54930696 3.56522047,2.40206775 C3.41848114,2.25482854 3.00619997,1.45613143 2.7471051,0.96883586 C2.65080615,0.788404465 2.50540486,0.510849148 2.38453447,0.282141932 C2.22494176,0.0163592116 2.20361408,-0.0344509886 2.07824298,0.0189753442 C2.02135564,0.0429293082 1.908919,0.126482043 1.82429756,0.20790917 C1.71056343,0.325839522 1.29957977,0.625509335 1.30862173,0.812481061 C1.31535252,0.880214368 1.39064817,1.0352611 1.42555907,1.20923392 C1.51800607,1.65614294 1.51601927,1.74868863 1.49732714,1.99362405 C1.46371373,1.96807588 1.38935067,1.88219315 1.35772406,1.82745875 C1.2549376,1.68483865 1.21686403,1.6098701 1.08046417,1.40340001 C1.04843209,1.353857 0.939604139,1.18119225 0.807137324,1.3010847 C0.675319261,1.4066293 0.625527633,1.52063545 0.599050489,1.56036797 C0.577884992,1.59372366 0.588224459,1.6874139 0.599050489,1.73695691 C0.599050489,1.73695691 0.820071794,2.77731927 0.820071794,2.99621599 C0.973866293,3.71614297 1.14250097,4.49922504 1.1328508,4.6770403 C1.2588301,4.7356989 0.149912166,8.20285124 0.136977695,8.39509611 C-0.262977204,9.38272704 0.278527022,12.3808559 0.916330202,13.8043181 C1.02426612,13.9710966 2.0918262,14.3867347 2.28438356,14.8049889 C2.4020102,14.8909942 3.36293185,16.4584664 3.4592308,16.7497155 C3.55548921,17.0408829 3.89993536,18.4774259 3.87021447,19.2161972 C3.87021447,19.2161972 4.21462007,21.8670753 4.24823348,22.0768564 L3.83595231,23.2117265 C3.83595231,23.2117265 3.83595231,23.2429975 3.5483935,23.3166171 C3.26338914,23.3895827 3.12512411,23.4221617 2.97518157,23.4944733 C2.82463083,23.5661308 2.7160867,23.6260565 2.68697401,23.6703673 C2.65855061,23.7152912 2.62878917,23.7759119 2.62878917,23.7759119 C2.62878917,23.7759119 2.56744166,23.9550761 2.56614416,24 L4.69948024,24 C4.74623085,23.7644254 4.80003662,23.4826189 4.81540391,23.47428 C4.84074574,23.4612402 5.35046117,22.3185625 5.37373511,22.3042147 C5.39753616,22.2898668 5.41201141,22.2325572 5.42336455,22.2182093 C5.40836219,22.1889413 5.2689213,21.1908459 5.30638666,20.8364008 C5.30638666,20.8364008 5.39944186,19.7035336 5.44923349,19.1927337 C5.47712978,18.9106411 5.6372496,17.8435042 5.6372496,17.8435042 C5.6372496,17.8435042 5.83759197,16.6447841 5.9474336,16.3510006 C5.97950622,16.2649952 7.1920621,15.988748 7.1920621,15.988748 C7.1920621,15.988748 10.1233212,15.9762396 10.9427341,16.1770278 C11.6432228,16.3874629 12.8652667,17.9405873 13.9877273,19.5360603 C14.4865761,19.9341212 15.2762681,20.7224355 15.4423889,20.8898271 C15.6090773,21.0573005 16.3250955,22.2650953 16.3250955,22.4195289 L16.4827825,22.8547062 L16.5590513,23.1198349 C15.9851906,23.4820875 15.6949962,23.6306348 15.6949962,23.6306348 C15.6949962,23.6306348 15.5037364,23.7022923 15.5270103,23.7817573 C15.507345,23.8162576 15.4410914,23.8671086 15.4404021,24 L15.4402399,24 L17.2948158,24 L17.29587,24 C17.3747338,23.9720401 17.4510026,23.9420363 17.4606528,23.9172648 C17.5123501,23.7837194 17.7404671,23.4123921 17.7424134,23.4162754 C17.5207839,22.5895775 16.9520726,21.4677472 16.9520726,21.4677472 C16.7956831,20.7641301 16.7795455,20.3498001 16.7032767,19.9953959 C16.216673,19.7165325 16.0376583,19.0389951 15.8489529,18.6278944 L15.6008057,17.4806385 C15.5801268,17.4285202 15.5537713,17.1737743 15.5537713,17.1737743 C15.628702,17.362095 15.6836025,17.7673094 15.9311415,18.1647163 C16.2348786,18.590778 17.3418097,19.3015485 17.3418097,19.3015485 C17.3418097,19.3015485 18.5282939,19.7393011 19.4013504,19.6416049 C19.4013504,19.6416049 20.1935968,19.7022256 20.9496754,19.1992741 C21.7257841,18.6826288 22.2983068,18.1640213 22.5225718,17.4760602 C22.218186,17.5966067 21.5176973,17.6643809 20.8178573,17.7197285" id="Fill-1"></path>
                </g>
                <path d="M34.3839193,23.8396872 L36.0474274,23.8396872 L38.2281369,15.7338337 C38.2630872,15.5911239 38.3130834,15.3857035 38.3804763,15.1175725 C38.4455183,14.847084 38.5129112,14.5615073 38.5853194,14.25597 C38.6577276,13.9502755 38.7252773,13.6522824 38.7901626,13.3591615 C38.8575555,13.0660406 38.9075516,12.8306009 38.9425019,12.6503276 C38.9675783,12.8306009 39.0075439,13.0660406 39.0674139,13.3591615 C39.1274406,13.6522824 39.1898183,13.9502755 39.2572112,14.25597 C39.3222532,14.5615073 39.3871385,14.8495987 39.4520238,15.1251166 C39.5170658,15.4006346 39.5695695,15.6035402 39.6045198,15.7338337 L41.695111,23.8396872 L43.3587758,23.8396872 L46.6135405,11.8611801 L47.8474579,11.8611801 C47.9173584,11.6483728 47.9548164,11.437923 47.9548164,11.2350173 C47.9548164,11.0321117 47.9173584,10.8216619 47.8474579,10.6063398 L43.681008,10.6063398 C43.6085998,10.8216619 43.5736495,11.0321117 43.5736495,11.2350173 C43.5736495,11.437923 43.6085998,11.6483728 43.681008,11.8611801 L45.1821461,11.8611801 L43.3412223,18.8198544 C43.306272,18.9627214 43.2539249,19.1704993 43.1888829,19.4460172 C43.1239976,19.7216923 43.0540971,20.014656 42.9840398,20.3253799 C42.9116316,20.6359466 42.8442387,20.9364545 42.776689,21.2295753 C42.7118037,21.5226962 42.6618076,21.7606507 42.6268573,21.9384092 C42.6019376,21.7606507 42.5594644,21.5226962 42.4994377,21.2295753 C42.4420753,20.9364545 42.3795409,20.6334319 42.312148,20.3153211 C42.247106,19.999725 42.1822207,19.7040894 42.1173355,19.4285714 C42.0497858,19.1530535 41.9999464,18.9501478 41.9649961,18.8198544 L39.8717406,10.6063398 L38.2105834,10.6063398 L36.0275229,18.8198544 C35.9925727,18.9627214 35.9425765,19.1679846 35.8776912,19.4386303 C35.8101416,19.7066041 35.7427487,19.9972102 35.6703404,20.3077769 C35.6004399,20.6183436 35.5303826,20.9240381 35.4654973,21.2220312 C35.4004553,21.5201815 35.3481082,21.7606507 35.313158,21.9384092 C35.2782077,21.7606507 35.2307192,21.5226962 35.1706925,21.2295753 C35.1108225,20.9364545 35.0482881,20.6359466 34.9834028,20.3253799 C34.9160099,20.014656 34.8509679,19.7216923 34.7860826,19.4460172 C34.7210406,19.1704993 34.6686935,18.9627214 34.6337433,18.8198544 L32.8826244,11.8611801 L34.401316,11.8611801 C34.473881,11.6483728 34.5088313,11.437923 34.5088313,11.2350173 C34.5088313,11.0321117 34.473881,10.8216619 34.401316,10.6063398 L30.0201492,10.6063398 C29.9502486,10.8216619 29.9127907,11.0321117 29.9127907,11.2350173 C29.9127907,11.437923 29.9502486,11.6483728 30.0201492,11.8611801 L31.2366698,11.8611801 L34.3839193,23.8396872 Z M56.8571079,23.6969774 C57.4517329,23.4915571 57.9763006,23.2209114 58.4283034,22.8803253 C58.8829705,22.5395821 59.2625651,22.1413149 59.5724158,21.6880384 C59.8821098,21.2346048 60.1344414,20.7511518 60.3242387,20.2452235 C60.514036,19.7366234 60.6514862,19.2156069 60.7364326,18.6845316 C60.8188714,18.1536134 60.8611879,17.6424986 60.8611879,17.1516586 C60.8611879,16.6506026 60.8188714,16.1321009 60.7364326,15.6010255 C60.6514862,15.0699502 60.514036,14.5489337 60.3242387,14.0404908 C60.1344414,13.5320478 59.8821098,13.0511095 59.5724158,12.5976759 C59.2625651,12.1442422 58.8829705,11.745975 58.4283034,11.4053889 C57.9763006,11.0646457 57.4517329,10.7916425 56.8571079,10.5887368 C56.260132,10.3858312 55.5733511,10.2857143 54.7989594,10.2857143 C53.632435,10.2857143 52.6607231,10.503551 51.8864881,10.9393817 C51.1095888,11.3753696 50.4876931,11.9289201 50.0179801,12.5976759 C49.5459162,13.2664316 49.2111458,14.005442 49.0163332,14.8120352 C48.819013,15.6186285 48.7216851,16.3975599 48.7216851,17.1516586 C48.7216851,17.8930266 48.819013,18.6670858 49.0163332,19.473679 C49.2111458,20.2802723 49.5459162,21.0191255 50.0179801,21.6880384 C50.4876931,22.3567941 51.1095888,22.9103447 51.8864881,23.3461754 C52.6607231,23.7820061 53.632435,24 54.7989594,24 C55.5733511,24 56.260132,23.8998831 56.8571079,23.6969774 L56.8571079,23.6969774 Z M53.0829476,22.2516478 C52.5583799,21.9960904 52.1037127,21.6278426 51.7165952,21.149419 C51.3269701,20.6709954 51.02715,20.0948124 50.8122763,19.4185126 C50.5975593,18.7447275 50.490044,17.9882712 50.490044,17.1516586 C50.490044,16.3148889 50.5975593,15.5559179 50.8122763,14.8745887 C51.02715,14.1932594 51.3269701,13.6147189 51.7165952,13.1362953 C52.1037127,12.6578717 52.5583799,12.2896239 53.0829476,12.0315518 C53.6075153,11.7761515 54.1794147,11.6483728 54.7989594,11.6483728 C55.4183474,11.6483728 55.9904036,11.7761515 56.5149713,12.0315518 C57.039539,12.2896239 57.4940494,12.6578717 57.8763083,13.1362953 C58.2559029,13.6147189 58.5532154,14.1932594 58.7680891,14.8745887 C58.9828061,15.5559179 59.0903213,16.3148889 59.0903213,17.1516586 C59.0903213,17.9882712 58.9828061,18.7447275 58.7680891,19.4185126 C58.5532154,20.0948124 58.2559029,20.6709954 57.8763083,21.149419 C57.4940494,21.6278426 57.039539,21.9960904 56.5149713,22.2516478 C55.9904036,22.5095628 55.4183474,22.6373415 54.7989594,22.6373415 C54.1794147,22.6373415 53.6075153,22.5095628 53.0829476,22.2516478 L53.0829476,22.2516478 Z M62.3624828,22.4218623 C62.2900746,22.6373415 62.2551243,22.8477913 62.2551243,23.0506969 C62.2551243,23.2536026 62.2900746,23.4613805 62.3624828,23.6793745 L71.642018,23.6793745 L71.642018,19.3209104 C71.4271443,19.248141 71.1998891,19.2130922 70.9626033,19.2130922 C70.7477296,19.2130922 70.5154591,19.248141 70.2656351,19.3209104 L70.2656351,22.2791525 L65.3299655,22.2791525 L65.3299655,11.8611801 L66.8685616,11.8611801 C66.9386189,11.6483728 66.9760768,11.437923 66.9760768,11.2350173 C66.9760768,11.0321117 66.9386189,10.8216619 66.8685616,10.6063398 L62.3624828,10.6063398 C62.2900746,10.8216619 62.2551243,11.0321117 62.2551243,11.2350173 C62.2551243,11.437923 62.2900746,11.6483728 62.3624828,11.8611801 L63.7037586,11.8611801 L63.7037586,22.4218623 C63.7037586,22.4218623 62.3624828,22.4218623 62.3624828,22.4218623 L62.3624828,22.4218623 Z M73.4055183,22.4218623 C73.3356178,22.6373415 73.2981599,22.8477913 73.2981599,23.0506969 C73.2981599,23.2536026 73.3356178,23.4613805 73.4055183,23.6793745 L77.9841621,23.6793745 C78.0664442,23.4739541 78.1089174,23.266019 78.1089174,23.0506969 C78.1089174,22.8352177 78.0664442,22.6197385 77.9841621,22.4044165 L76.3730011,22.4044165 L76.3730011,17.6726751 L81.3611745,17.6726751 C81.4461209,17.432206 81.4885941,17.1942515 81.4885941,16.9537824 C81.4885941,16.7156708 81.4461209,16.4777163 81.3611745,16.2372472 L76.3730011,16.2372472 L76.3730011,12.0416106 L81.6135061,12.0416106 L81.6135061,14.4989538 C81.8283798,14.5816249 82.0606503,14.6242178 82.3103176,14.6242178 C82.5601416,14.6242178 82.7924121,14.5816249 83.0072858,14.4989538 L83.0072858,10.6063398 L73.4055183,10.6063398 C73.3356178,10.8216619 73.2981599,11.0321117 73.2981599,11.2350173 C73.2981599,11.437923 73.3356178,11.6483728 73.4055183,11.8611801 L74.7467942,11.8611801 L74.7467942,22.4218623 L73.4055183,22.4218623 Z M84.6833321,23.6793745 C84.9082364,23.749472 85.1354916,23.7845208 85.3602391,23.7845208 C85.5751128,23.7845208 85.802368,23.749472 86.0421615,23.6793745 L86.0421615,22.3343189 C86.4593707,22.8352177 86.986446,23.2359996 87.6233875,23.53415 C88.260329,23.8321431 89.0696709,23.982397 90.0462414,23.982397 C90.7007364,23.982397 91.3151091,23.9022406 91.8871653,23.7394132 C92.4592215,23.5791004 92.9562051,23.3436607 93.3809372,23.033094 C93.803005,22.7225273 94.1352678,22.3442206 94.3725536,21.9033605 C94.6098393,21.4599857 94.729736,20.9515427 94.729736,20.3778745 C94.729736,19.8043634 94.6523125,19.3083369 94.4974656,18.889952 C94.3426186,18.4717242 94.1152066,18.1110205 93.8180509,17.8053261 C93.5207384,17.4997888 93.1560329,17.2442314 92.7289499,17.0339388 C92.2993592,16.8260037 91.8147571,16.6506026 91.2801588,16.5053781 L88.4201912,15.7338337 C87.7757268,15.5684915 87.3036629,15.3355664 87.0063504,15.0349014 C86.7090379,14.7369083 86.5592062,14.3361264 86.5592062,13.8350704 C86.5592062,13.1186924 86.8165531,12.5777153 87.3285826,12.2119822 C87.8406121,11.8462491 88.4900918,11.6658186 89.276865,11.6658186 C89.8489212,11.6658186 90.3460615,11.7409456 90.770637,11.888842 C91.1927047,12.0390959 91.5475363,12.2420016 91.8346615,12.497559 C92.1194358,12.7554739 92.3343095,13.0485948 92.4766183,13.3767645 C92.6215914,13.7072917 92.691492,14.0505496 92.691492,14.4087386 L92.691492,14.9998527 C92.9187472,15.0724649 93.1511744,15.1076708 93.3884602,15.1076708 C93.6157154,15.1076708 93.8479859,15.0724649 94.0877793,14.9998527 L94.0877793,10.6063398 C93.8730623,10.5360851 93.6456504,10.4985216 93.4083646,10.4985216 C93.1811094,10.4985216 92.9538542,10.5360851 92.7289499,10.6063398 L92.7289499,11.8437343 C92.4542062,11.4129331 92.0196002,11.0497146 91.4226243,10.7515643 C90.8256484,10.4535712 90.0811917,10.3031601 89.18706,10.3031601 C88.627542,10.3031601 88.0904361,10.3833165 87.5784066,10.5436292 C87.0663771,10.7064567 86.6167253,10.9444112 86.2294511,11.262522 C85.8423336,11.5781181 85.5326396,11.9689983 85.2978615,12.4348484 C85.0680986,12.9032131 84.9505528,13.446862 84.9505528,14.0679954 C84.9505528,14.5214291 85.0256254,14.922211 85.1729495,15.2679836 C85.3227812,15.6161138 85.522609,15.9166216 85.772433,16.1746938 C86.022257,16.4327659 86.3143975,16.6455732 86.6491679,16.8209743 C86.9814307,16.9938606 87.3285826,17.1290262 87.6857651,17.2242709 L90.5283359,17.9933007 C90.8855184,18.0909028 91.2177812,18.206108 91.5199522,18.3439455 C91.8247876,18.4817831 92.0869931,18.6469681 92.3068821,18.8374574 C92.529122,19.0277895 92.7015225,19.2531704 92.8264345,19.5087278 C92.9513465,19.7666428 93.0137242,20.0673078 93.0137242,20.415438 C93.0137242,21.0967672 92.7515187,21.6278426 92.226951,22.0111787 C91.7023833,22.3918429 90.9579266,22.5846897 89.9937376,22.5846897 C89.3843802,22.5846897 88.8397514,22.5070481 88.3551492,22.3517647 C87.8730548,22.1964814 87.4660328,21.9860316 87.1312624,21.7230872 C86.796492,21.4599857 86.5418094,21.1569631 86.361886,20.8088329 C86.184627,20.4630603 86.0946652,20.1048713 86.0946652,19.7341087 L86.0946652,18.9801672 C85.8797915,18.9075549 85.647521,18.8725062 85.397697,18.8725062 C85.1704418,18.8725062 84.9331561,18.9075549 84.6833321,18.9801672 L84.6833321,23.6793745 Z M96.2285233,22.4218623 C96.1561151,22.6373415 96.1210081,22.8477913 96.1210081,23.0506969 C96.1210081,23.2536026 96.1561151,23.4613805 96.2285233,23.6793745 L102.647934,23.6793745 C103.362299,23.6793745 103.984352,23.5742282 104.516442,23.3637784 C105.045868,23.1558433 105.48549,22.8752959 105.837814,22.5221363 C106.189981,22.1689767 106.452186,21.7631654 106.624587,21.3021876 C106.796987,20.841367 106.884285,20.3604287 106.884285,19.8593727 C106.884285,19.3559592 106.809369,18.9250007 106.662045,18.5594248 C106.512213,18.1936916 106.324767,17.8854825 106.097511,17.6351116 C105.870256,17.3845836 105.620432,17.1791633 105.345689,17.0163358 C105.073453,16.856023 104.81109,16.7282443 104.558915,16.6306421 C104.893529,16.4777163 105.160907,16.2823548 105.365593,16.0494298 C105.567928,15.8165047 105.727791,15.5735209 105.847687,15.3229929 C105.965077,15.0724649 106.047515,14.8246088 106.087481,14.5791102 C106.129954,14.3336117 106.152523,14.1105883 106.152523,13.9053251 C106.152523,13.4743667 106.080115,13.0635259 105.937649,12.6702881 C105.792833,12.2745356 105.570436,11.9238907 105.265757,11.620711 C104.961079,11.3151737 104.573805,11.0696752 104.104248,10.8843725 C103.632184,10.6989126 103.070159,10.6063398 102.413156,10.6063398 L96.2285233,10.6063398 C96.1561151,10.8216619 96.1210081,11.0321117 96.1210081,11.2350173 C96.1210081,11.437923 96.1561151,11.6483728 96.2285233,11.8611801 L97.5697992,11.8611801 L97.5697992,22.4218623 C97.5697992,22.4218623 96.2285233,22.4218623 96.2285233,22.4218623 L96.2285233,22.4218623 Z M99.160899,16.1822379 L99.160899,11.9689983 L101.896111,11.9689983 C102.385729,11.9689983 102.792907,12.0214929 103.119998,12.121767 C103.449753,12.2243986 103.712115,12.3647508 103.916959,12.5450241 C104.119137,12.7229399 104.261603,12.9359044 104.346549,13.1814029 C104.428988,13.4242296 104.471461,13.69739 104.471461,13.9953831 C104.471461,14.7618982 104.244049,15.3154488 103.792047,15.6637361 C103.337379,16.0093516 102.700438,16.1822379 101.878715,16.1822379 C101.878715,16.1822379 99.160899,16.1822379 99.160899,16.1822379 L99.160899,16.1822379 Z M99.160899,22.3142012 L99.160899,17.5448964 L102.288244,17.5448964 C102.647934,17.5448964 102.997751,17.5824599 103.344902,17.6525574 C103.689547,17.7251697 103.99689,17.8504337 104.264111,18.0308641 C104.533839,18.2086227 104.75122,18.4490919 104.918606,18.7472422 C105.083326,19.0452353 105.168273,19.4285714 105.168273,19.8944215 C105.168273,20.6008978 104.951048,21.1794383 104.516442,21.6353867 C104.079329,22.0888203 103.404772,22.3142012 102.485564,22.3142012 L99.160899,22.3142012 Z M109.512138,19.3033074 C109.512138,19.9370144 109.606959,20.5381872 109.79942,21.1043114 C109.989218,21.6729502 110.284023,22.1714914 110.683678,22.6022927 C111.083334,23.033094 111.592856,23.3738372 112.212244,23.624208 C112.831788,23.874736 113.563707,24 114.41035,24 C115.25715,24 115.986561,23.874736 116.60109,23.624208 C117.215463,23.3738372 117.717619,23.033094 118.112259,22.6022927 C118.504392,22.1714914 118.796689,21.6729502 118.988994,21.1043114 C119.178791,20.5381872 119.273768,19.9370144 119.273768,19.3033074 L119.273768,11.8611801 L120.649994,11.8611801 C120.722559,11.6483728 120.75751,11.437923 120.75751,11.2350173 C120.75751,11.0321117 120.722559,10.8216619 120.649994,10.6063398 L116.396247,10.6063398 C116.323839,10.8216619 116.288732,11.0321117 116.288732,11.2350173 C116.288732,11.437923 116.323839,11.6483728 116.396247,11.8611801 L117.717619,11.8611801 L117.717619,19.0878282 C117.717619,19.7691575 117.620134,20.3302522 117.422814,20.773627 C117.228001,21.2144871 116.970654,21.5678039 116.655945,21.8307482 C116.338728,22.0936926 115.984053,22.2791525 115.59192,22.3868135 C115.19728,22.4946317 114.805147,22.5471263 114.41035,22.5471263 C114.018217,22.5471263 113.626085,22.4946317 113.238967,22.3868135 C112.851693,22.2791525 112.502033,22.0936926 112.184816,21.8307482 C111.870107,21.5678039 111.615268,21.2144871 111.425471,20.773627 C111.235673,20.3302522 111.138189,19.7691575 111.138189,19.0878282 L111.138189,11.8611801 L112.497018,11.8611801 C112.569426,11.6483728 112.604533,11.437923 112.604533,11.2350173 C112.604533,11.0321117 112.569426,10.8216619 112.497018,10.6063398 L108.170706,10.6063398 C108.100805,10.8216619 108.063347,11.0321117 108.063347,11.2350173 C108.063347,11.437923 108.100805,11.6483728 108.170706,11.8611801 L109.512138,11.8611801 L109.512138,19.3033074 Z M122.416002,22.4218623 C122.346102,22.6373415 122.311151,22.8477913 122.311151,23.0506969 C122.311151,23.2536026 122.346102,23.4613805 122.416002,23.6793745 L126.977093,23.6793745 C127.049658,23.4613805 127.084608,23.2536026 127.084608,23.0506969 C127.084608,22.8477913 127.049658,22.6373415 126.977093,22.4218623 L125.348535,22.4218623 L125.348535,17.9582519 L128.353476,17.9582519 L131.196046,23.6793745 L133.913705,23.6793745 C133.986113,23.4613805 134.021064,23.2536026 134.021064,23.0506969 C134.021064,22.8477913 133.986113,22.6373415 133.913705,22.4218623 L132.607379,22.4218623 L130.124499,17.8329879 C130.62399,17.7251697 131.046215,17.539867 131.393366,17.2769226 C131.738011,17.0138211 132.012911,16.7133132 132.215247,16.37257 C132.417582,16.0294693 132.564906,15.6761525 132.65236,15.3055471 C132.742165,14.9347845 132.787146,14.5765955 132.787146,14.2283082 C132.787146,13.7274094 132.707215,13.2540152 132.544845,12.8131551 C132.384983,12.3697803 132.147697,11.9839294 131.83048,11.6559169 C131.513263,11.3277473 131.128653,11.0696752 130.668971,10.8843725 C130.209445,10.6989126 129.68237,10.6063398 129.085394,10.6063398 L122.416002,10.6063398 C122.346102,10.8216619 122.311151,11.0321117 122.311151,11.2350173 C122.311151,11.437923 122.346102,11.6483728 122.416002,11.8611801 L123.757435,11.8611801 L123.757435,22.4218623 L122.416002,22.4218623 Z M125.348535,16.5954362 L125.348535,11.9689983 L128.585746,11.9689983 C129.337569,11.9689983 129.937052,12.1492716 130.39172,12.5074606 C130.843879,12.8656496 131.071134,13.446862 131.071134,14.2459111 C131.071134,15.0950973 130.838864,15.6987849 130.374323,16.0569739 C129.909625,16.4151629 129.287729,16.5954362 128.513338,16.5954362 L125.348535,16.5954362 Z M144.104925,21.9384092 C143.902747,22.0336539 143.702762,22.1188397 143.505442,22.1889372 C143.308122,22.2615495 143.100928,22.3242601 142.881039,22.3767546 C142.658799,22.4319211 142.41399,22.4694846 142.146613,22.4946317 C141.879392,22.5196216 141.572205,22.5296805 141.224897,22.5296805 C140.592971,22.5296805 140.003518,22.4119606 139.456538,22.1714914 C138.906894,21.9333798 138.429814,21.5827349 138.025143,21.124429 C137.620629,20.6634512 137.303256,20.0998418 137.078508,19.4386303 C136.851253,18.7747468 136.738879,18.0182906 136.738879,17.1691044 C136.738879,16.5129223 136.813795,15.8565829 136.961119,15.205273 C137.110951,14.5539631 137.345729,13.9729079 137.667961,13.4569209 C137.990193,12.9432913 138.407402,12.5250636 138.919432,12.2019234 C139.431461,11.8812978 140.051006,11.7184703 140.777909,11.7184703 C141.302477,11.7184703 141.769526,11.7935973 142.174197,11.9438512 C142.578868,12.0917476 142.921004,12.2996827 143.200763,12.5626271 C143.480522,12.8230567 143.692888,13.1262365 143.835197,13.4668225 C143.98017,13.8075657 144.050071,14.16324 144.050071,14.5340026 L144.050071,15.2153319 C144.277326,15.2879441 144.514612,15.3229929 144.766943,15.3229929 C145.004229,15.3229929 145.244023,15.2879441 145.481308,15.2153319 L145.481308,10.6263003 C145.266435,10.5536881 145.039179,10.5186393 144.801894,10.5186393 C144.574638,10.5186393 144.349734,10.5536881 144.122479,10.6263003 L144.122479,11.7008674 C143.228191,10.7565937 142.08925,10.2857143 140.707852,10.2857143 C139.77877,10.2857143 138.959397,10.4760464 138.250048,10.8592254 C137.540541,11.2400468 136.941058,11.7510044 136.451597,12.3922555 C135.964487,13.0309918 135.594767,13.7624581 135.344943,14.5866544 C135.092768,15.4132081 134.967856,16.2674237 134.967856,17.1516586 C134.967856,18.0358936 135.087752,18.889952 135.325038,19.7166629 C135.564832,20.540702 135.934552,21.2696535 136.434044,21.9033605 C136.936199,22.5370674 137.580507,23.0456675 138.37496,23.4263318 C139.166748,23.8096679 140.118399,24 141.224897,24 C141.701976,24 142.171689,23.9624365 142.628707,23.8847948 C143.088389,23.8071532 143.50795,23.7119085 143.890208,23.5967034 C144.272311,23.4840129 144.607081,23.3612636 144.899378,23.2309702 C145.191519,23.0981621 145.416423,22.9854717 145.57127,22.8878695 C145.641171,22.8528207 145.686151,22.8077131 145.706056,22.7550613 C145.723609,22.6998949 145.731132,22.649915 145.731132,22.6022927 L145.731132,18.6395811 L146.892642,18.6395811 C146.96505,18.4241019 147,18.2161668 147,18.0107465 C147,17.8078408 146.96505,17.5999057 146.892642,17.3845836 L142.244097,17.3845836 C142.174197,17.5999057 142.139246,17.8078408 142.139246,18.0107465 C142.139246,18.2161668 142.174197,18.4241019 142.244097,18.6395811 L144.104925,18.6395811 L144.104925,21.9384092 Z" id="Fill-1"></path>
            </g>
        </g>
    </g>
</svg>