<?xml version="1.0" encoding="UTF-8" standalone="no"?>
<svg
   xmlns:dc="http://purl.org/dc/elements/1.1/"
   xmlns:cc="http://creativecommons.org/ns#"
   xmlns:rdf="http://www.w3.org/1999/02/22-rdf-syntax-ns#"
   xmlns:svg="http://www.w3.org/2000/svg"
   xmlns="http://www.w3.org/2000/svg"
   xmlns:sodipodi="http://sodipodi.sourceforge.net/DTD/sodipodi-0.dtd"
   xmlns:inkscape="http://www.inkscape.org/namespaces/inkscape"
   inkscape:version="1.0beta1 (32d4812, 2019-09-19)"
   sodipodi:docname="wolfsburg-logo-black.svg"
   id="svg844"
   version="1.1"
   viewBox="0 0 147 24"
   height="24px"
   width="147px">
  <metadata
     id="metadata850">
    <rdf:RDF>
      <cc:Work
         rdf:about="">
        <dc:format>image/svg+xml</dc:format>
        <dc:type
           rdf:resource="http://purl.org/dc/dcmitype/StillImage" />
        <dc:title>logo/telefonica-negative copy</dc:title>
      </cc:Work>
    </rdf:RDF>
  </metadata>
  <defs
     id="defs848" />
  <sodipodi:namedview
     inkscape:current-layer="svg844"
     inkscape:window-maximized="0"
     inkscape:window-y="23"
     inkscape:window-x="0"
     inkscape:cy="184.28571"
     inkscape:cx="184.28571"
     inkscape:zoom="1.4167331"
     showgrid="false"
     id="namedview846"
     inkscape:window-height="969"
     inkscape:window-width="1600"
     inkscape:pageshadow="2"
     inkscape:pageopacity="0"
     guidetolerance="10"
     gridtolerance="10"
     objecttolerance="10"
     borderopacity="1"
     inkscape:document-rotation="0"
     bordercolor="#666666"
     pagecolor="#ffffff" />
  <!-- Generator: Sketch 53.2 (72643) - https://sketchapp.com -->
  <title
     id="title833">logo/telefonica-negative copy</title>
  <desc
     id="desc835">Created with Sketch.</desc>
  <g
     id="Group-3"
     stroke-width="1"
     style="opacity:1;fill:#000000;fill-rule:evenodd;stroke:none;stop-opacity:1">
    <path
       style="fill:#000000"
       d="m 20.817857,17.719728 c -1.156722,0.07105 -1.939968,-0.325054 -2.279264,-0.609804 -0.637155,-0.504218 -0.734711,-0.861852 -0.806479,-0.902238 -0.235821,-0.450834 -0.557642,-0.967479 -0.958975,-1.501047 -0.666227,-0.698385 -1.088239,-1.150486 -1.088239,-1.150486 0,-0.0052 -0.540855,-0.498414 -0.970612,-0.779852 C 12.696145,11.802364 11.387534,11.703318 10.171329,11.230984 9.6091456,11.012087 6.456257,8.9299317 6.456257,8.9299317 c 0,0 -0.4445971,-0.7127326 -0.8898834,-1.1824102 0,0 -0.3618814,-0.6501907 -0.4135787,-0.9120901 -0.015002,-0.042717 0.020192,-0.3641738 0.3470412,-0.2820926 -0.028951,-0.012508 0.5880926,0.1192384 0.7353996,-0.049502 0.013989,-0.00834 0.046548,-0.031802 0.027937,-0.077503 C 6.1759561,6.1540106 5.5284216,5.2119577 5.1813805,4.8627448 5.1025572,4.5565756 4.696723,3.4008172 4.696723,3.4008172 4.4376282,2.9362902 3.7118787,2.549307 3.5652205,2.4020678 3.4184811,2.2548285 3.0062,1.4561314 2.7471051,0.96883586 2.6508062,0.78840447 2.5054049,0.51084915 2.3845345,0.28214193 2.2249418,0.01635921 2.2036141,-0.03445099 2.078243,0.01897534 2.0213556,0.04292931 1.908919,0.12648204 1.8242976,0.20790917 1.7105634,0.32583952 1.2995798,0.62550933 1.3086217,0.81248106 c 0.00673,0.0677333 0.082027,0.22278004 0.1169374,0.39675284 0.092447,0.446909 0.09046,0.5394547 0.071768,0.7843901 C 1.4637137,1.9680759 1.3893507,1.8821931 1.3577241,1.8274587 1.2549376,1.6848387 1.216864,1.6098701 1.0804642,1.4034 1.0484321,1.353857 0.93960414,1.1811922 0.80713732,1.3010847 0.67531926,1.4066293 0.62552763,1.5206355 0.59905049,1.560368 c -0.0211655,0.033356 -0.010826,0.1270459 0,0.1765889 0,0 0.2210213,1.0403624 0.2210213,1.2592591 0.1537945,0.719927 0.32242921,1.503009 0.31277901,1.6808243 0.1259793,0.058659 -0.98293863,3.5258109 -0.9958731,3.7180558 -0.3999549,0.9876309 0.14154932,3.9857599 0.7793525,5.4092219 0.1079359,0.166779 1.175496,0.582417 1.3680534,1.000671 0.1176266,0.086 1.0785482,1.653477 1.1748472,1.944726 0.096258,0.291168 0.4407046,1.727711 0.4109837,2.466482 0,0 0.3444056,2.650878 0.378019,2.860659 l -0.4122812,1.13487 c 0,0 0,0.03127 -0.2875588,0.104891 -0.2850044,0.07297 -0.4232694,0.105545 -0.5732119,0.177856 -0.1505508,0.07166 -0.2590949,0.131583 -0.2882076,0.175894 -0.028423,0.04492 -0.058185,0.105545 -0.058185,0.105545 0,0 -0.061348,0.179164 -0.062645,0.224088 H 4.69948 c 0.046751,-0.235575 0.1005564,-0.517381 0.1159237,-0.52572 0.025342,-0.01304 0.5350573,-1.155718 0.5583312,-1.170065 0.023801,-0.01435 0.038276,-0.07166 0.049629,-0.08601 -0.015002,-0.02927 -0.1544432,-1.027363 -0.1169778,-1.381808 0,0 0.093055,-1.132867 0.1428468,-1.643667 0.027896,-0.282093 0.1880161,-1.34923 0.1880161,-1.34923 0,0 0.2003424,-1.19872 0.310184,-1.492503 0.032073,-0.08601 1.2446285,-0.362253 1.2446285,-0.362253 0,0 2.9312585,-0.01251 3.7506715,0.18828 0.700489,0.210435 1.922533,1.763559 3.044993,3.359032 0.498849,0.398061 1.288541,1.186375 1.454662,1.353767 0.166688,0.167473 0.882706,1.375268 0.882706,1.529702 l 0.157687,0.435177 0.07627,0.265129 c -0.57386,0.362252 -0.864055,0.5108 -0.864055,0.5108 0,0 -0.19126,0.07166 -0.167986,0.151122 -0.01966,0.0345 -0.08592,0.08535 -0.08661,0.218243 h -1.62e-4 1.854576 0.0011 c 0.07886,-0.02796 0.155133,-0.05796 0.164783,-0.08273 0.0517,-0.133546 0.279814,-0.504873 0.28176,-0.50099 -0.221629,-0.826698 -0.79034,-1.948528 -0.79034,-1.948528 -0.15639,-0.703617 -0.172528,-1.117947 -0.248796,-1.472351 -0.486604,-0.278864 -0.665619,-0.956401 -0.854324,-1.367502 L 15.60085,17.48064 c -0.02068,-0.05212 -0.04704,-0.306865 -0.04704,-0.306865 0.07493,0.188321 0.129831,0.593535 0.377371,0.990942 0.303737,0.426062 1.410668,1.136832 1.410668,1.136832 0,0 1.186484,0.437753 2.05954,0.340057 0,0 0.792247,0.06062 1.548325,-0.442331 0.776109,-0.516645 1.348632,-1.035253 1.572897,-1.723214 -0.304386,0.120547 -1.004875,0.188321 -1.704715,0.243668"
       id="Fill-1"
       inkscape:connector-curvature="0" />
  </g>
  <path
     d="m 34.383919,23.839687 h 1.663508 l 2.18071,-8.105853 c 0.03495,-0.14271 0.08495,-0.34813 0.152339,-0.616261 0.06504,-0.270489 0.132435,-0.556066 0.204843,-0.861603 0.07241,-0.305694 0.139958,-0.603688 0.204844,-0.896808 0.06739,-0.293121 0.117389,-0.528561 0.152339,-0.708834 0.02508,0.180273 0.06504,0.415713 0.124912,0.708834 0.06003,0.29312 0.122404,0.591114 0.189797,0.896808 0.06504,0.305537 0.129927,0.593629 0.194813,0.869147 0.06504,0.275518 0.117545,0.478423 0.152496,0.608717 l 2.090591,8.105853 h 1.663665 L 46.61354,11.86118 h 1.233918 c 0.0699,-0.212807 0.107358,-0.423257 0.107358,-0.626163 0,-0.202905 -0.03746,-0.413355 -0.107358,-0.628677 h -4.16645 c -0.07241,0.215322 -0.107358,0.425772 -0.107358,0.628677 0,0.202906 0.03495,0.413356 0.107358,0.626163 h 1.501138 l -1.840924,6.958674 c -0.03495,0.142867 -0.0873,0.350645 -0.152339,0.626163 -0.06488,0.275675 -0.134786,0.568639 -0.204843,0.879363 -0.07241,0.310567 -0.139801,0.611074 -0.207351,0.904195 -0.06488,0.293121 -0.114881,0.531076 -0.149832,0.708834 -0.02492,-0.177758 -0.06739,-0.415713 -0.127419,-0.708834 -0.05736,-0.293121 -0.119897,-0.596143 -0.18729,-0.914254 -0.06504,-0.315596 -0.129927,-0.611232 -0.194812,-0.88675 -0.06755,-0.275518 -0.11739,-0.478423 -0.15234,-0.608717 L 39.871741,10.60634 h -1.661158 l -2.18306,8.213514 c -0.03495,0.142867 -0.08495,0.348131 -0.149832,0.618776 -0.06755,0.267974 -0.134942,0.55858 -0.207351,0.869147 -0.0699,0.310567 -0.139957,0.616261 -0.204843,0.914254 -0.06504,0.29815 -0.117389,0.53862 -0.152339,0.716378 -0.03495,-0.177758 -0.08244,-0.415713 -0.142466,-0.708834 -0.05987,-0.293121 -0.122404,-0.593628 -0.187289,-0.904195 -0.06739,-0.310724 -0.132435,-0.603688 -0.19732,-0.879363 -0.06504,-0.275518 -0.117389,-0.483296 -0.15234,-0.626163 L 32.882624,11.86118 h 1.518692 c 0.07256,-0.212807 0.107515,-0.423257 0.107515,-0.626163 0,-0.202905 -0.03495,-0.413355 -0.107515,-0.628677 h -4.381167 c -0.0699,0.215322 -0.107358,0.425772 -0.107358,0.628677 0,0.202906 0.03746,0.413356 0.107358,0.626163 h 1.216521 z m 22.473189,-0.14271 c 0.594625,-0.20542 1.119193,-0.476066 1.571195,-0.816652 0.454667,-0.340743 0.834262,-0.73901 1.144113,-1.192287 0.309694,-0.453433 0.562025,-0.936886 0.751823,-1.442814 0.189797,-0.508601 0.327247,-1.029617 0.412194,-1.560692 0.08244,-0.530919 0.124755,-1.042033 0.124755,-1.532873 0,-0.501056 -0.04232,-1.019558 -0.124755,-1.550633 -0.08495,-0.531076 -0.222397,-1.052092 -0.412194,-1.560535 -0.189798,-0.508443 -0.442129,-0.989381 -0.751823,-1.442815 -0.309851,-0.453434 -0.689446,-0.851701 -1.144113,-1.192287 -0.452002,-0.340743 -0.97657,-0.613746 -1.571195,-0.816652 -0.596976,-0.202906 -1.283757,-0.303023 -2.058149,-0.303023 -1.166524,0 -2.138236,0.217837 -2.912471,0.653668 -0.776899,0.435988 -1.398795,0.989538 -1.868508,1.658294 -0.472064,0.668756 -0.806834,1.407766 -1.001647,2.214359 -0.19732,0.806594 -0.294648,1.585525 -0.294648,2.339624 0,0.741368 0.09733,1.515427 0.294648,2.32202 0.194813,0.806593 0.529583,1.545446 1.001647,2.214359 0.469713,0.668756 1.091609,1.222307 1.868508,1.658137 C 52.660723,23.782006 53.632435,24 54.798959,24 c 0.774392,0 1.461173,-0.100117 2.058149,-0.303023 z m -3.77416,-1.445329 C 52.55838,21.99609 52.103713,21.627843 51.716595,21.149419 51.32697,20.670995 51.02715,20.094812 50.812276,19.418513 c -0.214717,-0.673786 -0.322232,-1.430242 -0.322232,-2.266854 0,-0.83677 0.107515,-1.595741 0.322232,-2.27707 0.214874,-0.68133 0.514694,-1.25987 0.904319,-1.738294 0.387118,-0.478423 0.841785,-0.846671 1.366353,-1.104743 0.524567,-0.255401 1.096467,-0.383179 1.716011,-0.383179 0.619388,0 1.191445,0.127778 1.716012,0.383179 0.524568,0.258072 0.979078,0.62632 1.361337,1.104743 0.379595,0.478424 0.676907,1.056964 0.891781,1.738294 0.214717,0.681329 0.322232,1.4403 0.322232,2.27707 0,0.836612 -0.107515,1.593068 -0.322232,2.266854 -0.214874,0.676299 -0.512186,1.252482 -0.891781,1.730906 -0.382259,0.478424 -0.836769,0.846671 -1.361337,1.102229 -0.524567,0.257915 -1.096624,0.385694 -1.716012,0.385694 -0.619544,0 -1.191444,-0.127779 -1.716011,-0.385694 z m 9.279535,0.170214 c -0.07241,0.21548 -0.107359,0.425929 -0.107359,0.628835 0,0.202906 0.03495,0.410683 0.107359,0.628678 h 9.279535 V 19.32091 c -0.214874,-0.07277 -0.442129,-0.107818 -0.679415,-0.107818 -0.214873,0 -0.447144,0.03505 -0.696968,0.107818 v 2.958242 h -4.93567 V 11.86118 h 1.538597 c 0.07006,-0.212807 0.107515,-0.423257 0.107515,-0.626163 0,-0.202905 -0.03746,-0.413355 -0.107515,-0.628677 h -4.506079 c -0.07241,0.215322 -0.107359,0.425772 -0.107359,0.628677 0,0.202906 0.03495,0.413356 0.107359,0.626163 h 1.341276 v 10.560682 c 0,0 -1.341276,0 -1.341276,0 z m 11.043035,0 c -0.0699,0.21548 -0.107358,0.425929 -0.107358,0.628835 0,0.202906 0.03746,0.410683 0.107358,0.628678 h 4.578644 c 0.08228,-0.205421 0.124755,-0.413356 0.124755,-0.628678 0,-0.215479 -0.04247,-0.430959 -0.124755,-0.646281 h -1.611161 v -4.731741 h 4.988174 c 0.08495,-0.240469 0.127419,-0.478424 0.127419,-0.718893 0,-0.238111 -0.04247,-0.476066 -0.127419,-0.716535 h -4.988174 v -4.195636 h 5.240505 v 2.457343 c 0.214874,0.08267 0.447144,0.125264 0.696812,0.125264 0.249824,0 0.482094,-0.04259 0.696968,-0.125264 V 10.60634 h -9.601768 c -0.0699,0.215322 -0.107358,0.425772 -0.107358,0.628677 0,0.202906 0.03746,0.413356 0.107358,0.626163 h 1.341276 v 10.560682 z m 11.277814,1.257513 c 0.224904,0.0701 0.45216,0.105146 0.676907,0.105146 0.214874,0 0.442129,-0.03505 0.681923,-0.105146 v -1.345056 c 0.417209,0.500899 0.944284,0.901681 1.581226,1.199831 0.636941,0.297993 1.446283,0.448247 2.422853,0.448247 0.654495,0 1.268868,-0.08016 1.840924,-0.242984 0.572056,-0.160313 1.06904,-0.395752 1.493772,-0.706319 0.422068,-0.310567 0.754331,-0.688873 0.991617,-1.129733 0.237285,-0.443375 0.357182,-0.951818 0.357182,-1.525487 0,-0.573511 -0.07742,-1.069537 -0.23227,-1.487922 -0.154847,-0.418228 -0.382259,-0.778932 -0.679415,-1.084626 -0.297313,-0.305537 -0.662018,-0.561095 -1.089101,-0.771387 -0.429591,-0.207935 -0.914193,-0.383336 -1.448791,-0.528561 l -2.859968,-0.771544 c -0.644464,-0.165342 -1.116528,-0.398268 -1.413841,-0.698933 -0.297312,-0.297993 -0.447144,-0.698775 -0.447144,-1.199831 0,-0.716378 0.257347,-1.257355 0.769377,-1.623088 0.512029,-0.365733 1.161509,-0.546163 1.948282,-0.546163 0.572056,0 1.069197,0.07513 1.493772,0.223023 0.422068,0.150254 0.776899,0.35316 1.064024,0.608717 0.284775,0.257915 0.499649,0.551036 0.641957,0.879206 0.144973,0.330527 0.214874,0.673785 0.214874,1.031974 v 0.591114 c 0.227255,0.07261 0.459682,0.107818 0.696968,0.107818 0.227255,0 0.459526,-0.03521 0.699319,-0.107818 V 10.60634 c -0.214717,-0.07025 -0.442129,-0.107818 -0.679414,-0.107818 -0.227256,0 -0.454511,0.03756 -0.679415,0.107818 v 1.237394 C 92.454206,11.412933 92.0196,11.049715 91.422624,10.751564 90.825648,10.453571 90.081192,10.30316 89.18706,10.30316 c -0.559518,0 -1.096624,0.08016 -1.608653,0.240469 -0.51203,0.162828 -0.961682,0.400782 -1.348956,0.718893 -0.387117,0.315596 -0.696811,0.706476 -0.93159,1.172326 -0.229762,0.468365 -0.347308,1.012014 -0.347308,1.633147 0,0.453434 0.07507,0.854216 0.222397,1.199989 0.149831,0.34813 0.349659,0.648638 0.599483,0.90671 0.249824,0.258072 0.541964,0.470879 0.876735,0.64628 0.332263,0.172887 0.679415,0.308052 1.036597,0.403297 l 2.842571,0.76903 c 0.357182,0.0976 0.689445,0.212807 0.991616,0.350644 0.304836,0.137838 0.567041,0.303023 0.78693,0.493512 0.22224,0.190332 0.39464,0.415713 0.519553,0.671271 0.124911,0.257915 0.187289,0.55858 0.187289,0.90671 0,0.681329 -0.262205,1.212405 -0.786773,1.595741 -0.524568,0.380664 -1.269024,0.573511 -2.233213,0.573511 -0.609358,0 -1.153987,-0.07764 -1.638589,-0.232925 -0.482094,-0.155284 -0.889116,-0.365733 -1.223887,-0.628678 -0.33477,-0.263101 -0.589453,-0.566124 -0.769376,-0.914254 -0.177259,-0.345773 -0.267221,-0.703962 -0.267221,-1.074724 v -0.753942 c -0.214874,-0.07261 -0.447144,-0.107661 -0.696968,-0.107661 -0.227255,0 -0.464541,0.03505 -0.714365,0.107661 z m 11.545191,-1.257513 c -0.07241,0.21548 -0.107515,0.425929 -0.107515,0.628835 0,0.202906 0.03511,0.410683 0.107515,0.628678 h 6.419407 c 0.71437,0 1.33642,-0.105147 1.86851,-0.315597 0.52943,-0.207935 0.96905,-0.488482 1.32137,-0.841642 0.35217,-0.353159 0.61438,-0.758971 0.78678,-1.219948 0.1724,-0.460821 0.2597,-0.941759 0.2597,-1.442815 0,-0.503414 -0.0749,-0.934372 -0.22224,-1.299948 -0.14984,-0.365733 -0.33728,-0.673943 -0.56454,-0.924313 -0.22725,-0.250528 -0.47708,-0.455949 -0.75182,-0.618776 -0.27224,-0.160313 -0.5346,-0.288092 -0.78677,-0.385694 0.33461,-0.152926 0.60199,-0.348287 0.80667,-0.581212 0.20234,-0.232925 0.3622,-0.475909 0.4821,-0.726437 0.11739,-0.250528 0.19983,-0.498384 0.23979,-0.743883 0.0425,-0.245498 0.065,-0.468522 0.065,-0.673785 0,-0.430958 -0.0724,-0.841799 -0.21487,-1.235037 -0.14482,-0.395752 -0.36721,-0.746397 -0.67189,-1.049577 -0.30468,-0.305537 -0.69196,-0.551036 -1.16151,-0.736338 -0.47207,-0.18546 -1.03409,-0.278033 -1.69109,-0.278033 h -6.184637 c -0.07241,0.215322 -0.107515,0.425772 -0.107515,0.628677 0,0.202906 0.03511,0.413356 0.107515,0.626163 h 1.341276 v 10.560682 c 0,0 -1.341276,0 -1.341276,0 z m 2.932376,-6.239624 v -4.21324 h 2.735211 c 0.48962,0 0.8968,0.0525 1.22389,0.152769 0.32975,0.102632 0.59211,0.242984 0.79696,0.423257 0.20218,0.177916 0.34464,0.39088 0.42959,0.636379 0.0824,0.242827 0.12491,0.515987 0.12491,0.81398 0,0.766515 -0.22741,1.320066 -0.67941,1.668353 -0.45467,0.345616 -1.09161,0.518502 -1.91333,0.518502 0,0 -2.717821,0 -2.717821,0 z m 0,6.131963 v -4.769305 h 3.127341 c 0.35969,0 0.70951,0.03756 1.05666,0.107661 0.34465,0.07261 0.65199,0.197877 0.91921,0.378307 0.26973,0.177759 0.48711,0.418228 0.6545,0.716378 0.16472,0.297993 0.24966,0.681329 0.24966,1.147179 0,0.706477 -0.21722,1.285017 -0.65183,1.740966 -0.43711,0.453433 -1.11167,0.678814 -2.03088,0.678814 z m 10.351241,-3.010894 c 0,0.633707 0.0948,1.23488 0.28728,1.801004 0.1898,0.568639 0.4846,1.06718 0.88426,1.497982 0.39965,0.430801 0.90918,0.771544 1.52856,1.021915 C 112.83179,23.874736 113.56371,24 114.41035,24 c 0.8468,0 1.57621,-0.125264 2.19074,-0.375792 0.61437,-0.250371 1.11653,-0.591114 1.51117,-1.021915 0.39213,-0.430802 0.68443,-0.929343 0.87673,-1.497982 0.1898,-0.566124 0.28478,-1.167297 0.28478,-1.801004 V 11.86118 h 1.37622 c 0.0726,-0.212807 0.10752,-0.423257 0.10752,-0.626163 0,-0.202905 -0.0349,-0.413355 -0.10752,-0.628677 h -4.25374 c -0.0724,0.215322 -0.10752,0.425772 -0.10752,0.628677 0,0.202906 0.0351,0.413356 0.10752,0.626163 h 1.32137 v 7.226648 c 0,0.681329 -0.0975,1.242424 -0.29481,1.685799 -0.19481,0.44086 -0.45216,0.794177 -0.76686,1.057121 -0.31722,0.262945 -0.6719,0.448404 -1.06403,0.556065 -0.39464,0.107819 -0.78677,0.160313 -1.18157,0.160313 -0.39213,0 -0.78426,-0.05249 -1.17138,-0.160313 -0.38728,-0.107661 -0.73694,-0.29312 -1.05415,-0.556065 -0.31471,-0.262944 -0.56955,-0.616261 -0.75935,-1.057121 -0.1898,-0.443375 -0.28728,-1.00447 -0.28728,-1.685799 V 11.86118 h 1.35883 c 0.0724,-0.212807 0.10751,-0.423257 0.10751,-0.626163 0,-0.202905 -0.0351,-0.413355 -0.10751,-0.628677 h -4.32631 c -0.0699,0.215322 -0.10736,0.425772 -0.10736,0.628677 0,0.202906 0.0375,0.413356 0.10736,0.626163 h 1.34143 z m 12.90386,3.118555 c -0.0699,0.21548 -0.10485,0.425929 -0.10485,0.628835 0,0.202906 0.035,0.410683 0.10485,0.628678 h 4.56109 c 0.0726,-0.217995 0.10752,-0.425772 0.10752,-0.628678 0,-0.202906 -0.0349,-0.413355 -0.10752,-0.628835 h -1.62856 v -4.46361 h 3.00495 l 2.84257,5.721123 h 2.71765 c 0.0724,-0.217995 0.10736,-0.425772 0.10736,-0.628678 0,-0.202906 -0.035,-0.413355 -0.10736,-0.628835 h -1.30632 l -2.48288,-4.588874 c 0.49949,-0.107818 0.92171,-0.293121 1.26887,-0.556065 0.34464,-0.263102 0.61954,-0.56361 0.82188,-0.904353 0.20233,-0.343101 0.34966,-0.696417 0.43711,-1.067023 0.0898,-0.370763 0.13479,-0.728951 0.13479,-1.077239 0,-0.500899 -0.0799,-0.974293 -0.24231,-1.415153 -0.15986,-0.443375 -0.39714,-0.829226 -0.71436,-1.157238 -0.31722,-0.32817 -0.70183,-0.586242 -1.16151,-0.771544 -0.45953,-0.18546 -0.9866,-0.278033 -1.58358,-0.278033 H 122.416 c -0.0699,0.215322 -0.10485,0.425772 -0.10485,0.628677 0,0.202906 0.035,0.413356 0.10485,0.626163 h 1.34144 v 10.560682 z m 2.93253,-5.826426 v -4.626438 h 3.23722 c 0.75182,0 1.3513,0.180274 1.80597,0.538463 0.45216,0.358189 0.67941,0.939401 0.67941,1.73845 0,0.849186 -0.23227,1.452874 -0.69681,1.811063 -0.4647,0.358189 -1.08659,0.538462 -1.86098,0.538462 z m 18.75639,5.342973 c -0.20217,0.09524 -0.40216,0.180431 -0.59948,0.250528 -0.19732,0.07261 -0.40451,0.135323 -0.6244,0.187818 -0.22224,0.05517 -0.46705,0.09273 -0.73443,0.117877 -0.26722,0.02499 -0.57441,0.03505 -0.92171,0.03505 -0.63193,0 -1.22138,-0.11772 -1.76836,-0.35819 -0.54965,-0.238111 -1.02673,-0.588756 -1.4314,-1.047062 -0.40451,-0.460978 -0.72188,-1.024587 -0.94663,-1.685799 -0.22726,-0.663883 -0.33963,-1.420339 -0.33963,-2.269526 0,-0.656182 0.0749,-1.312521 0.22224,-1.963831 0.14983,-0.65131 0.38461,-1.232365 0.70684,-1.748352 0.32223,-0.51363 0.73944,-0.931857 1.25147,-1.254998 0.51203,-0.320625 1.13158,-0.483453 1.85848,-0.483453 0.52457,0 0.99162,0.07513 1.39629,0.225381 0.40467,0.147897 0.7468,0.355832 1.02656,0.618776 0.27976,0.26043 0.49213,0.563609 0.63444,0.904195 0.14497,0.340744 0.21487,0.696418 0.21487,1.067181 v 0.681329 c 0.22726,0.07261 0.46454,0.107661 0.71687,0.107661 0.23729,0 0.47708,-0.03505 0.71437,-0.107661 V 10.6263 c -0.21488,-0.07261 -0.44213,-0.107661 -0.67942,-0.107661 -0.22725,0 -0.45216,0.03505 -0.67941,0.107661 v 1.074567 c -0.89429,-0.944273 -2.03323,-1.415153 -3.41463,-1.415153 -0.92908,0 -1.74845,0.190332 -2.4578,0.573511 -0.70951,0.380822 -1.30899,0.891779 -1.79845,1.53303 -0.48711,0.638737 -0.85683,1.370203 -1.10666,2.194399 -0.25217,0.826554 -0.37708,1.68077 -0.37708,2.565005 0,0.884235 0.11989,1.738293 0.35718,2.565004 0.23979,0.824039 0.60951,1.55299 1.109,2.186698 0.50216,0.633706 1.14647,1.142306 1.94092,1.522971 C 139.16675,23.809668 140.1184,24 141.2249,24 c 0.47708,0 0.94679,-0.03756 1.40381,-0.115205 0.45968,-0.07764 0.87924,-0.172887 1.2615,-0.288092 0.3821,-0.11269 0.71687,-0.235439 1.00917,-0.365733 0.29214,-0.132808 0.51704,-0.245498 0.67189,-0.343101 0.0699,-0.03505 0.11488,-0.08016 0.13479,-0.132808 0.0175,-0.05517 0.0251,-0.105146 0.0251,-0.152768 v -3.962712 h 1.16151 C 146.96505,18.424102 147,18.216167 147,18.010746 c 0,-0.202905 -0.035,-0.41084 -0.10736,-0.626162 h -4.64854 c -0.0699,0.215322 -0.10485,0.423257 -0.10485,0.626162 0,0.205421 0.035,0.413356 0.10485,0.628835 h 1.86082 z"
     id="path839"
     inkscape:connector-curvature="0"
     style="opacity:1;fill:#000000;fill-rule:evenodd;stroke:none;stroke-width:1;stop-opacity:1" />
</svg>
