<?xml version="1.0" encoding="UTF-8" standalone="no"?>
<svg
   xmlns:dc="http://purl.org/dc/elements/1.1/"
   xmlns:cc="http://creativecommons.org/ns#"
   xmlns:rdf="http://www.w3.org/1999/02/22-rdf-syntax-ns#"
   xmlns:svg="http://www.w3.org/2000/svg"
   xmlns="http://www.w3.org/2000/svg"
   xmlns:sodipodi="http://sodipodi.sourceforge.net/DTD/sodipodi-0.dtd"
   xmlns:inkscape="http://www.inkscape.org/namespaces/inkscape"
   inkscape:version="1.0beta1 (32d4812, 2019-09-19)"
   sodipodi:docname="wolfsburg-accent-square-black.svg"
   id="svg76"
   version="1.1"
   viewBox="0 0 27.607025 27.607269"
   height="27.607269"
   width="27.607025">
  <metadata
     id="metadata82">
    <rdf:RDF>
      <cc:Work
         rdf:about="">
        <dc:format>image/svg+xml</dc:format>
        <dc:type
           rdf:resource="http://purl.org/dc/dcmitype/StillImage" />
        <dc:title>logo/wolfsburg_stadtwerke_accent</dc:title>
      </cc:Work>
    </rdf:RDF>
  </metadata>
  <defs
     id="defs80" />
  <sodipodi:namedview
     fit-margin-bottom="0"
     fit-margin-right="0"
     fit-margin-left="0"
     fit-margin-top="0"
     inkscape:current-layer="svg76"
     inkscape:window-maximized="1"
     inkscape:window-y="23"
     inkscape:window-x="0"
     inkscape:cy="13.756522"
     inkscape:cx="-62.858835"
     inkscape:zoom="4.5463918"
     showgrid="false"
     id="namedview78"
     inkscape:window-height="970"
     inkscape:window-width="1920"
     inkscape:pageshadow="2"
     inkscape:pageopacity="0"
     guidetolerance="10"
     gridtolerance="10"
     objecttolerance="10"
     borderopacity="1"
     inkscape:document-rotation="0"
     bordercolor="#666666"
     pagecolor="#ffffff" />
  <!-- Generator: Sketch 53.2 (72643) - https://sketchapp.com -->
  <title
     id="title50">logo/wolfsburg_stadtwerke_accent</title>
  <desc
     id="desc52">Created with Sketch.</desc>
  <path
     inkscape:connector-curvature="0"
     id="Fill-1"
     d="M 0,27.60727 H 27.607026 V 0 H 0 Z M 0.690261,26.917009 H 26.916765 V 0.69026087 H 0.690261 Z"
     style="opacity:1;fill:#000000;fill-opacity:1;fill-rule:evenodd;stroke:none;stroke-width:1;stop-opacity:1" />
  <path
     d="m 6.506592,8.2773842 2.551652,3.5138788 1.419721,1.953426 c 1.079096,-0.783757 1.319166,-2.294296 0.534679,-3.372905 L 7.428157,5.4386712 Z"
     id="Fill-19"
     inkscape:connector-curvature="0"
     style="opacity:1;fill:#000000;fill-rule:evenodd;stroke:none;stroke-width:1;stop-opacity:1" />
  <path
     d="m 10.886571,11.167958 c -0.0521,0.0375 -0.107131,0.06428 -0.165322,0.08303 l -5.792591,1.8816 -0.922539,2.839686 c 0,0 5.831547,-1.894504 5.850295,-1.901321 0.216696,-0.07572 0.426087,-0.18407 0.621357,-0.326261 0.86873,-0.630609 1.19353,-1.731861 0.878226,-2.699931 -0.07572,-0.2352 -0.189913,-0.462365 -0.343305,-0.672974 0.1848,0.254679 0.128313,0.610887 -0.126121,0.796174"
     id="Fill-21"
     inkscape:connector-curvature="0"
     style="opacity:1;fill:#000000;fill-rule:evenodd;stroke:none;stroke-width:1;stop-opacity:1" />
  <path
     d="m 6.741499,18.71128 4.129879,-1.342539 2.29673,-0.745287 c -0.411722,-1.268765 -1.774226,-1.963165 -3.043235,-1.550956 l -5.798678,1.884278 z"
     id="Fill-23"
     inkscape:connector-curvature="0"
     style="opacity:1;fill:#000000;fill-rule:evenodd;stroke:none;stroke-width:1;stop-opacity:1" />
  <path
     d="m 10.843767,15.438835 c 0.01948,0.06063 0.028,0.121983 0.02751,0.181878 l 4.87e-4,6.09207 2.414331,1.754748 c 0,0 4.87e-4,-6.132974 0,-6.152453 -0.0046,-0.2296 -0.04334,-0.462365 -0.117844,-0.691721 -0.331374,-1.021148 -1.278748,-1.669774 -2.297461,-1.669287 -0.246887,0 -0.497669,0.03847 -0.745774,0.11833 0.299479,-0.09666 0.621113,0.06744 0.718748,0.366435"
     id="Fill-25"
     inkscape:connector-curvature="0"
     style="opacity:1;fill:#000000;fill-rule:evenodd;stroke:none;stroke-width:1;stop-opacity:1" />
  <path
     d="m 16.73672,21.712904 4.87e-4,-4.343652 -4.87e-4,-2.413843 c -1.334017,-0.0012 -2.415304,1.080556 -2.415304,2.414087 v 6.098156 z"
     id="Fill-27"
     inkscape:connector-curvature="0"
     style="opacity:1;fill:#000000;fill-rule:evenodd;stroke:none;stroke-width:1;stop-opacity:1" />
  <path
     d="m 14.891593,16.799124 c 0.06379,7.3e-4 0.125148,0.01096 0.182122,0.03043 l 5.791617,1.882087 2.415305,-1.755234 c 0,0 -5.830574,-1.894505 -5.849565,-1.900105 -0.219861,-0.06623 -0.45287,-0.101774 -0.6944,-0.1008 -1.073253,-0.0015 -1.982887,0.69927 -2.297218,1.667826 -0.07621,0.234713 -0.1176,0.485739 -0.118087,0.746018 4.87e-4,-0.315305 0.255409,-0.569739 0.570226,-0.570226"
     id="Fill-29"
     inkscape:connector-curvature="0"
     style="opacity:1;fill:#000000;fill-rule:evenodd;stroke:none;stroke-width:1;stop-opacity:1" />
  <path
     d="M 22.677663,13.132682 18.549002,11.79136 16.252515,11.045343 c -0.412696,1.268522 0.282191,2.630782 1.55047,3.043235 l 5.79746,1.883791 z"
     id="Fill-31"
     inkscape:connector-curvature="0"
     style="opacity:1;fill:#000000;fill-rule:evenodd;stroke:none;stroke-width:1;stop-opacity:1" />
  <path
     d="m 17.43672,13.369976 c 0.02045,-0.06063 0.04894,-0.115652 0.08522,-0.164105 l 3.580345,-4.9282433 -0.922539,-2.839687 c 0,0 -3.604695,4.9618443 -3.616139,4.9784003 -0.130748,0.188696 -0.236417,0.399061 -0.310922,0.628904 -0.332591,1.020905 0.05284,2.102192 0.877253,2.700661 0.199408,0.145357 0.425113,0.261739 0.672487,0.342331 -0.299235,-0.09739 -0.462609,-0.418783 -0.365705,-0.718261"
     id="Fill-33"
     inkscape:connector-curvature="0"
     style="opacity:1;fill:#000000;fill-rule:evenodd;stroke:none;stroke-width:1;stop-opacity:1" />
  <path
     d="m 16.357235,4.8296834 -2.553113,3.5148521 -1.419965,1.9529395 c 1.079339,0.784243 2.589148,0.545148 3.373391,-0.5339483 l 3.58473,-4.9340868 z"
     id="Fill-35"
     inkscape:connector-curvature="0"
     style="opacity:1;fill:#000000;fill-rule:evenodd;stroke:none;stroke-width:1;stop-opacity:1" />
  <path
     d="m 14.961496,9.8894777 c -0.05186,-0.03749 -0.09471,-0.08181 -0.129774,-0.130747 L 11.251374,4.8307303 H 8.266087 c 0,0 3.603965,4.9608694 3.615896,4.9764524 0.139269,0.182609 0.307026,0.3481743 0.502052,0.4903653 0.868974,0.631096 2.016244,0.599687 2.839444,4.87e-4 0.199895,-0.144626 0.380069,-0.3238263 0.533704,-0.5341913 -0.185531,0.2539483 -0.541252,0.3104343 -0.795687,0.125634"
     id="Fill-37"
     inkscape:connector-curvature="0"
     style="opacity:1;fill:#000000;fill-rule:evenodd;stroke:none;stroke-width:1;stop-opacity:1" />
</svg>
